<svg width="234" height="113" viewBox="0 0 234 113" fill="none" xmlns="http://www.w3.org/2000/svg">
<path d="M1.65498 12.7657C14.8819 39.4811 34.4708 66.181 39.7183 71.1819C53.8198 84.7138 91.4652 94.4447 102.564 94.7543C107.355 94.8859 113.98 63.0535 110.443 59.3454C106.906 55.6373 60.4295 45.5194 57.9373 43.615C56.2114 42.2603 34.0684 21.1806 19.3632 8.66282C1.07452 -6.88955 -1.8201 5.72111 1.65498 12.7657Z" fill="#F7A9A0"/>
<path d="M100.18 54.8942L88.1764 92.7881C88.1764 92.7881 48.8437 82.4379 38.3179 72.3122C27.792 62.1865 5.98961 25.9415 1.73284 13.9889C-2.52394 2.03625 0.246837 -7.40045 19.5339 8.10547C38.821 23.6114 55.1747 39.4734 58.5879 42.0281C62.001 44.5827 100.18 54.8942 100.18 54.8942Z" fill="#455A64"/>
<path d="M87.998 56.4115C88.056 56.7899 88.225 57.1426 88.4835 57.425C88.742 57.7073 89.0784 57.9066 89.4501 57.9977C89.8219 58.0888 90.2123 58.0676 90.572 57.9367C90.9317 57.8058 91.2445 57.5712 91.4708 57.2624C91.6972 56.9537 91.8269 56.5848 91.8435 56.2023C91.8602 55.8199 91.7632 55.441 91.5646 55.1137C91.366 54.7865 91.0748 54.5255 90.7278 54.3638C90.3809 54.2021 89.9938 54.1469 89.6156 54.2052C89.1086 54.2834 88.6535 54.5597 88.3502 54.9735C88.0469 55.3872 87.9202 55.9044 87.998 56.4115Z" fill="#263238"/>
<path d="M78.3622 53.6322C78.4188 54.0112 78.5866 54.3649 78.8444 54.6484C79.1022 54.9319 79.4383 55.1324 79.8101 55.2247C80.182 55.3169 80.5729 55.2966 80.9332 55.1664C81.2935 55.0362 81.6071 54.802 81.8342 54.4933C82.0613 54.1847 82.1916 53.8156 82.2088 53.4327C82.2259 53.0499 82.129 52.6706 81.9304 52.3429C81.7318 52.0152 81.4404 51.7539 81.0931 51.592C80.7458 51.4301 80.3583 51.375 79.9797 51.4337C79.729 51.4715 79.4883 51.5584 79.2712 51.6894C79.0542 51.8204 78.8651 51.993 78.7148 52.1972C78.5646 52.4014 78.4561 52.6333 78.3956 52.8796C78.335 53.1258 78.3237 53.3816 78.3622 53.6322Z" fill="#263238"/>
<path d="M59.1604 83.3978C50.5462 80.0536 42.3345 76.1597 38.3177 72.3122C27.7918 62.2485 5.98939 25.9415 1.73262 13.9889C-0.991722 6.34819 -0.844666 -0.262901 4.65044 0.00804564L59.1604 83.3978Z" fill="#263238"/>
<path d="M147.972 69.6956C147.972 69.6956 133.491 68.0932 123.98 67.4971C118.662 67.1565 109.506 67.3964 105.49 68.9292C99.4837 71.2516 75.8392 84.6984 78.9738 90.5044C81.8142 95.753 89.0352 89.947 89.0352 89.947C89.0352 89.947 80.5217 95.5517 84.9642 99.9023C89.4068 104.253 98.1215 95.7994 98.1215 95.7994C98.1215 95.7994 88.687 101.125 93.8493 105.321C98.3305 108.952 109.383 100.266 109.383 100.266C109.383 100.266 98.8723 104.779 103.098 108.952C107.742 113.597 125.969 102.62 125.969 102.62C137.818 106.568 145.465 107.334 154.535 106.761C156.176 106.661 147.972 69.6956 147.972 69.6956Z" fill="#FFC4C0"/>
<path d="M95.4591 97.7116L97.6029 95.8227C98.9679 94.5638 100.405 93.3851 101.906 92.2926C103.392 91.2475 104.917 90.2799 106.473 89.3587C108.028 88.4374 109.87 87.5626 111.488 86.5408C111.5 86.5315 111.514 86.5248 111.529 86.5214C111.544 86.5179 111.559 86.5176 111.575 86.5206C111.59 86.5236 111.604 86.5297 111.616 86.5387C111.629 86.5476 111.639 86.5591 111.647 86.5723C111.655 86.5856 111.66 86.6004 111.661 86.6157C111.663 86.6309 111.661 86.6464 111.656 86.661C111.652 86.6756 111.644 86.6889 111.633 86.7003C111.623 86.7116 111.61 86.7206 111.596 86.7266C109.989 87.7174 108.439 88.7977 106.952 89.9625C105.459 91.054 103.973 92.1688 102.487 93.2758C101.001 94.3828 99.5301 95.3427 98.0519 96.3723C97.2779 96.891 96.5968 97.4484 95.8847 97.998C95.2384 98.5719 94.5445 99.0899 93.8105 99.5463C93.7409 99.585 93.6712 99.4843 93.7177 99.4224C94.2372 98.7932 94.8208 98.2198 95.4591 97.7116Z" fill="#263238"/>
<path d="M87.2863 91.147C88.2692 89.8696 93.6792 85.4571 95.1265 84.412C97.9241 82.3778 100.919 80.6298 104.066 79.1943C104.088 79.1881 104.113 79.1894 104.134 79.1981C104.156 79.2067 104.175 79.2223 104.187 79.2425C104.199 79.2626 104.205 79.2861 104.202 79.3096C104.2 79.333 104.19 79.3551 104.174 79.3724C101.38 81.4161 98.5551 83.4134 95.7302 85.4184C94.3448 86.3938 88.215 91.0308 87.5107 91.4334C87.3404 91.534 87.1857 91.2863 87.2863 91.147Z" fill="#263238"/>
<path d="M157.74 109.238L144.505 67.1719C144.505 67.1719 192.661 64.0754 194.224 63.3013C195.787 62.5271 212.954 32.1578 219.765 20.36C226.576 8.56219 237.07 13.3928 233.146 40.0462C229.207 66.8236 224.873 87.6323 218.875 93.8254C211.568 101.319 184.944 109.06 157.74 109.238Z" fill="#D80121"/>
<path d="M198.086 82.5231C197.971 81.3809 197.999 80.2287 198.171 79.0937C198.313 77.9517 198.602 76.8328 199.03 75.7649C199.147 76.9073 199.116 78.0599 198.937 79.1943C198.795 80.3353 198.509 81.4537 198.086 82.5231Z" fill="white"/>
<path d="M171.477 106.599C171.358 105.454 171.387 104.299 171.563 103.162C171.707 102.021 171.993 100.903 172.414 99.8328C172.533 100.977 172.505 102.133 172.329 103.27C172.186 104.411 171.9 105.529 171.477 106.599Z" fill="white"/>
<path d="M212.683 45.5426C212.57 44.4001 212.601 43.2479 212.776 42.1132C212.911 40.9708 213.197 39.8514 213.627 38.7844C213.832 41.0797 213.509 43.3914 212.683 45.5426Z" fill="white"/>
<path d="M220.392 78.2884C218.095 78.4912 215.783 78.171 213.627 77.3517C214.772 77.2325 215.927 77.2611 217.064 77.4369C218.204 77.5806 219.322 77.8666 220.392 78.2884Z" fill="white"/>
<path d="M174.156 79.6121C173.011 79.7314 171.856 79.7027 170.719 79.527C169.578 79.3842 168.46 79.0982 167.391 78.6754C168.535 78.5562 169.69 78.5848 170.827 78.7606C171.968 78.9052 173.086 79.1912 174.156 79.6121Z" fill="white"/>
<path d="M206.484 99.2598C207.213 98.3721 208.05 97.5789 208.976 96.8987C209.882 96.1901 210.876 95.602 211.933 95.1492C210.457 96.9072 208.605 98.3118 206.515 99.2598H206.484Z" fill="white"/>
<path d="M150.983 74.2244C151.712 73.3367 152.549 72.5435 153.475 71.8633C154.381 71.1547 155.375 70.5666 156.432 70.1138C155.708 71.007 154.87 71.8009 153.939 72.4749C153.034 73.1835 152.04 73.7716 150.983 74.2244Z" fill="white"/>
<path d="M200.834 56.9688C200.109 57.8625 199.271 58.6587 198.342 59.3376C197.64 59.8714 196.894 60.3453 196.113 60.7543C196.353 60.3827 196.616 59.9801 196.887 59.5311C197.204 59.2524 197.537 58.9815 197.87 58.757C198.778 58.037 199.774 57.4361 200.834 56.9688Z" fill="white"/>
<path d="M183.11 92.4084C183.839 91.5183 184.676 90.7226 185.602 90.0396C186.51 89.3337 187.503 88.7459 188.559 88.29C187.833 89.1838 186.996 89.98 186.066 90.6589C185.159 91.3647 184.165 91.9526 183.11 92.4084Z" fill="white"/>
<path d="M182.305 65.8015C183.195 66.5308 183.991 67.3681 184.673 68.2942C185.379 69.202 185.967 70.1957 186.423 71.2514C184.66 69.778 183.252 67.9257 182.305 65.8325V65.8015Z" fill="white"/>
<path d="M220.872 57.3247C221.765 58.05 222.561 58.8879 223.24 59.8174C223.95 60.7225 224.538 61.7167 224.989 62.7746C223.226 61.3013 221.819 59.4489 220.872 57.3557V57.3247Z" fill="white"/>
<path d="M209.301 38.1418C207.753 40.4642 206.275 42.926 204.827 45.349L204.703 45.5503C204.773 45.3645 204.851 45.1787 204.92 45.0007C205.392 43.793 205.81 42.5621 206.321 41.3777C206.321 41.308 206.251 41.2461 206.22 41.3158C205.694 42.4847 205.114 43.6382 204.618 44.8071C204.286 45.5813 203.984 46.4096 203.697 47.2224C202.622 49.0184 201.546 50.8144 200.485 52.6414C199.061 55.0722 197.645 57.5184 196.213 59.9492C195.857 60.5453 195.517 61.1414 195.153 61.7374C194.898 62.2655 194.453 62.6775 193.907 62.8909C193.259 63.0446 192.598 63.1328 191.933 63.1541C191.229 63.2238 190.525 63.3089 189.82 63.3941C186.616 63.7889 183.435 64.3153 180.231 64.7333C180.154 64.7333 180.154 64.865 180.231 64.8572C183.172 64.6327 186.121 64.5243 189.062 64.2843C190.517 64.1682 191.972 64.0676 193.411 63.8818C193.968 63.8525 194.506 63.6644 194.959 63.3399C195.358 62.9776 195.686 62.5445 195.927 62.0626C198.842 57.0152 201.757 51.9653 204.673 46.9128C206.321 44.0485 207.993 41.1997 209.51 38.2657C209.526 38.238 209.531 38.2049 209.523 38.1736C209.515 38.1424 209.495 38.1157 209.467 38.0992C209.439 38.0828 209.406 38.0781 209.375 38.0861C209.344 38.0941 209.317 38.1141 209.301 38.1418Z" fill="#263238"/>
<path d="M233.216 49.3743C233.067 50.3391 232.837 51.2895 232.527 52.2154C232.295 53.0437 232.071 53.872 231.823 54.6926C231.575 55.5132 231.211 56.5428 230.894 57.464C231.544 53.3663 232.06 49.2375 232.442 45.0779C232.442 44.954 232.241 44.9308 232.218 45.0779C231.444 50.8607 230.383 56.6202 229.168 62.3179C227.953 68.0155 226.483 73.7054 224.819 79.3024C223.998 82.0583 223.131 84.8065 222.172 87.5159C221.421 89.8893 220.281 92.121 218.797 94.1193C217.042 96.1139 214.845 97.6701 212.381 98.6635C209.815 99.8441 207.185 100.878 204.502 101.76C198.403 103.757 192.119 105.027 185.881 106.521C185.811 106.521 185.826 106.653 185.881 106.645C191.605 105.845 197.276 104.697 202.861 103.208C205.69 102.454 208.469 101.523 211.181 100.421C213.666 99.3834 216.228 98.2609 218.232 96.4185C220.067 94.6109 221.483 92.4229 222.381 90.0086C223.425 87.4772 224.246 84.8452 225.058 82.2673C226.839 76.5542 228.325 70.7946 229.54 64.9344C229.885 63.2365 230.208 61.536 230.507 59.8329C231.203 58.214 231.767 56.5416 232.194 54.832C232.427 53.9417 232.651 53.0515 232.829 52.1457C233.007 51.24 233.061 50.2955 233.317 49.4208C233.355 49.3047 233.224 49.2814 233.216 49.3743Z" fill="#263238"/>
<path d="M166.114 105.848C163.931 99.8017 161.625 93.8022 159.713 87.6711C157.731 81.6215 156.07 75.4715 154.737 69.2467C154.737 69.2231 154.745 69.2003 154.76 69.1817C154.774 69.1631 154.794 69.1497 154.817 69.1436C154.84 69.1375 154.864 69.1389 154.886 69.1478C154.908 69.1566 154.926 69.1723 154.938 69.1925C157.206 75.1223 159.048 81.2457 160.952 87.2995C162.856 93.3532 164.543 99.585 166.47 105.685C166.54 105.917 166.207 106.08 166.114 105.848Z" fill="#263238"/>
<path d="M106.047 57.1702C108.918 58.5946 122.037 59.1365 125.86 63.8432C128.407 66.9398 128.182 70.1369 129.637 79.4807C130.93 87.5937 124.219 85.6738 122.277 81.509C119.243 74.983 116.635 67.83 116.635 67.83C114.395 67.7189 112.151 67.7526 109.917 67.9307L106.047 57.1702Z" fill="#F7A9A0"/>
<path d="M115.473 87.8569C120.017 84.9771 134.544 103.34 127.284 108.178C120.024 113.016 110.327 91.1083 115.473 87.8569Z" fill="#F7A9A0"/>
<path d="M108.113 91.7275C112.649 88.8477 127.184 107.21 119.924 112.049C112.664 116.887 102.951 95.0176 108.113 91.7275Z" fill="#F7A9A0"/>
<path d="M102.897 92.5018C107.425 90.5123 118.082 109.208 110.807 112.629C103.532 116.051 97.7733 94.7236 102.897 92.5018Z" fill="#F7A9A0"/>
<path d="M97.5332 91.9598C102.293 91.3947 106.921 111.754 99.2049 112.861C91.4886 113.968 92.1696 92.6023 97.5332 91.9598Z" fill="#F7A9A0"/>
<path d="M114.437 94.1968C115.27 95.1161 116.026 96.1026 116.697 97.1462C117.471 98.2377 118.19 99.3448 118.84 100.506C119.474 101.612 120.043 102.755 120.543 103.928C121.054 105.174 121.41 106.505 121.96 107.736C121.966 107.75 121.97 107.765 121.971 107.78C121.972 107.795 121.969 107.81 121.964 107.824C121.959 107.838 121.95 107.851 121.939 107.862C121.929 107.873 121.916 107.881 121.902 107.886C121.888 107.892 121.873 107.894 121.857 107.894C121.842 107.893 121.827 107.889 121.814 107.882C121.8 107.875 121.788 107.866 121.779 107.854C121.769 107.842 121.762 107.828 121.758 107.814C121.229 106.615 120.614 105.456 119.916 104.346C119.274 103.223 118.693 102.07 118.067 100.939C117.44 99.8092 116.875 98.7255 116.248 97.6339C115.621 96.5424 114.87 95.4586 114.29 94.3051C114.28 94.2856 114.278 94.2634 114.283 94.2423C114.288 94.2212 114.301 94.2026 114.318 94.1897C114.336 94.1769 114.357 94.1705 114.379 94.1718C114.4 94.1731 114.421 94.1819 114.437 94.1968Z" fill="#263238"/>
<path d="M106.875 94.0963C107.339 95.4743 108.903 100.738 109.429 102.101C109.955 103.463 110.536 104.826 111.132 106.173C111.728 107.52 112.238 108.983 113.012 110.307C113.019 110.33 113.017 110.356 113.008 110.378C112.998 110.401 112.981 110.419 112.96 110.431C112.938 110.443 112.913 110.447 112.889 110.442C112.865 110.438 112.843 110.426 112.827 110.407C112.099 109.091 111.279 107.868 110.582 106.537C109.886 105.205 109.336 103.835 108.802 102.442C107.923 99.7267 107.213 96.9604 106.674 94.1583C106.635 93.988 106.821 93.9802 106.875 94.0963Z" fill="#263238"/>
<path d="M101.171 95.4047C101.535 97.371 101.775 99.3605 102.146 101.327C102.324 102.294 102.518 103.262 102.696 104.238C102.781 104.702 102.858 105.174 102.943 105.646C102.988 106.192 103.09 106.732 103.245 107.257C103.299 107.388 103.052 107.45 103.036 107.257C102.894 106.668 102.708 106.091 102.479 105.53C102.347 105.074 102.216 104.625 102.1 104.16C101.86 103.2 101.666 102.24 101.511 101.257C101.163 99.3295 100.962 97.3783 100.908 95.4202C100.908 95.2963 101.148 95.2576 101.171 95.4047Z" fill="#263238"/>
</svg>
