<svg width="20" height="27" viewBox="0 0 20 27" fill="none" xmlns="http://www.w3.org/2000/svg">
<path fill-rule="evenodd" clip-rule="evenodd" d="M1.0086 21.3418C1.43671 19.329 3.68185 18.0612 3.55953 13.722C3.43129 9.21505 6.71614 5 10.001 5C13.2839 5 16.5687 9.21505 16.4405 13.722C16.3162 18.0612 18.5633 19.329 18.9914 21.3418C19.4609 23.5527 0.539052 23.5527 1.0086 21.3418Z" stroke="#303233" stroke-width="1.5"/>
<path fill-rule="evenodd" clip-rule="evenodd" d="M12 3C12 4.10538 11.1054 5 10 5C8.89677 5 8 4.10538 8 3C8 1.89462 8.89677 1 10 1C11.1054 1 12 1.89462 12 3Z" stroke="#303233" stroke-width="1.5"/>
<path d="M13 23C13 24.6571 11.6571 26 10 26C8.34291 26 7 24.6571 7 23" stroke="#303233" stroke-width="1.5"/>
</svg>
