<svg width="46" height="46" viewBox="0 0 46 46" fill="none" xmlns="http://www.w3.org/2000/svg">
<path d="M23 46C35.7027 46 46 35.7027 46 23C46 10.2973 35.7027 0 23 0C10.2973 0 0 10.2973 0 23C0 35.7027 10.2973 46 23 46Z" fill="#303233"/>
<path fill-rule="evenodd" clip-rule="evenodd" d="M12.9404 19.7717V11.9601H9.19946V32.2001H12.9365L12.9404 25.0678C12.9365 23.8708 13.0508 22.9666 13.2795 22.3542C13.5043 21.7428 13.8589 21.2854 14.353 20.9792C14.8365 20.675 15.3927 20.5219 16.0127 20.5219C16.5544 20.5219 17.003 20.6405 17.3634 20.8807C17.7161 21.1065 17.9808 21.4439 18.1143 21.8375C18.2567 22.2394 18.3245 23.1848 18.3245 24.6774V32.2001H22.0664V23.8478C22.0664 22.5695 22.0025 21.627 21.8746 21.0213C21.7457 20.4128 21.5074 19.8607 21.1547 19.3564C20.8039 18.857 20.2846 18.4455 19.5899 18.125C18.8972 17.8025 18.1249 17.6399 17.2626 17.6399C15.5884 17.6399 14.1447 18.3537 12.9404 19.7717ZM27.675 19.7717V11.9601H23.938V32.2001H27.675V25.0678C27.675 23.8708 27.7893 22.9666 28.0141 22.3542C28.2418 21.7428 28.5984 21.2854 29.0857 20.9792C29.5702 20.675 30.1263 20.5219 30.7454 20.5219C31.2871 20.5219 31.7395 20.6405 32.0961 20.8807C32.4499 21.1058 32.7155 21.4433 32.8489 21.8375C32.9913 22.2394 33.0621 23.1848 33.0621 24.6774V32.2001H36.8001V23.8478C36.8001 22.5695 36.7361 21.627 36.6073 21.0213C36.4843 20.4238 36.2394 19.8574 35.8874 19.3564C35.5386 18.857 35.0193 18.4455 34.3275 18.125C33.6337 17.8025 32.8557 17.6399 31.9963 17.6399C30.323 17.6399 28.8803 18.3537 27.675 19.7717Z" fill="white"/>
</svg>
