<svg width="46" height="46" viewBox="0 0 46 46" fill="none" xmlns="http://www.w3.org/2000/svg">
<path d="M23 46C35.7027 46 46 35.7027 46 23C46 10.2973 35.7027 0 23 0C10.2973 0 0 10.2973 0 23C0 35.7027 10.2973 46 23 46Z" fill="#D6001D"/>
<path fill-rule="evenodd" clip-rule="evenodd" d="M12.9409 19.7717V11.96H9.20001V32.2H12.937L12.9409 25.0678C12.937 23.8707 13.0514 22.9665 13.28 22.3542C13.5048 21.7427 13.8594 21.2854 14.3536 20.9792C14.8371 20.6749 15.3932 20.5218 16.0133 20.5218C16.5549 20.5218 17.0035 20.6405 17.3639 20.8806C17.7167 21.1065 17.9814 21.4438 18.1148 21.8375C18.2573 22.2393 18.3251 23.1847 18.3251 24.6774V32.2H22.067V23.8478C22.067 22.5694 22.003 21.627 21.8751 21.0213C21.7463 20.4127 21.5079 19.8606 21.1552 19.3564C20.8045 18.8569 20.2852 18.4455 19.5905 18.1249C18.8977 17.8025 18.1255 17.6398 17.2632 17.6398C15.5889 17.6398 14.1453 18.3536 12.9409 19.7717ZM27.6749 19.7717V11.9601H23.9379V32.2001H27.6749V25.0678C27.6749 23.8708 27.7893 22.9666 28.014 22.3542C28.2417 21.7428 28.5983 21.2854 29.0856 20.9792C29.5701 20.6749 30.1262 20.5218 30.7454 20.5218C31.287 20.5218 31.7395 20.6405 32.096 20.8807C32.4498 21.1058 32.7154 21.4433 32.8488 21.8375C32.9913 22.2394 33.062 23.1847 33.062 24.6774V32.2001H36.8V23.8478C36.8 22.5695 36.7361 21.627 36.6072 21.0213C36.4843 20.4238 36.2393 19.8573 35.8873 19.3564C35.5385 18.857 35.0192 18.4455 34.3274 18.125C33.6336 17.8025 32.8556 17.6399 31.9962 17.6399C30.3229 17.6399 28.8802 18.3537 27.6749 19.7717Z" fill="white"/>
</svg>
