<svg width="80" height="21" viewBox="0 0 80 21" fill="none" xmlns="http://www.w3.org/2000/svg">
<path d="M10.5219 16.5174H8.58235V9.01392H1.93951V16.5174H0V0.267981H1.93951V7.30858H8.58235V0.267981H10.5219V16.5174Z" fill="#303233"/>
<path d="M22.5479 16.5174H20.3659L17.2627 10.0128H14.9353V16.5174H12.9958V0.267981H17.9415C19.2507 0.267981 20.3175 0.706497 21.1417 1.58353C21.966 2.46056 22.3782 3.63805 22.3782 5.11601C22.3782 6.46404 22.063 7.52784 21.4327 8.30743C20.8023 9.08701 20.0427 9.55801 19.1537 9.72042L22.5479 16.5174ZM17.7233 8.30743C18.5476 8.30743 19.1941 8.01508 19.6629 7.4304C20.1477 6.84571 20.3902 6.08237 20.3902 5.14037C20.3902 4.19838 20.1477 3.43503 19.6629 2.85035C19.1941 2.26566 18.5476 1.97332 17.7233 1.97332H14.9353V8.30743H17.7233Z" fill="#303233"/>
<path d="M33.1577 16.8097C31.1374 16.8097 29.5292 16.1276 28.3332 14.7633L29.3999 13.2773C30.3859 14.4791 31.6385 15.08 33.1577 15.08C34.1275 15.08 34.8629 14.8283 35.3639 14.3248C35.865 13.8051 36.1155 13.1717 36.1155 12.4246C36.1155 11.71 35.865 11.1009 35.3639 10.5974C34.8629 10.0777 34.2568 9.65545 33.5456 9.33063C32.8345 9.0058 32.1152 8.65661 31.3879 8.28306C30.6768 7.90951 30.0707 7.38979 29.5696 6.7239C29.0686 6.04176 28.8181 5.22158 28.8181 4.26334C28.8181 3.029 29.2545 2.01392 30.1272 1.2181C31 0.406032 32.1072 0 33.4487 0C35.2266 0 36.665 0.568446 37.7641 1.70534L36.7458 3.16705C35.8892 2.20882 34.774 1.7297 33.4002 1.7297C32.6567 1.7297 32.0344 1.95708 31.5334 2.41183C31.0324 2.86659 30.7818 3.45128 30.7818 4.16589C30.7818 4.70186 30.9596 5.18097 31.3152 5.60325C31.6869 6.00928 32.1395 6.34223 32.6729 6.60209C33.2062 6.84571 33.7881 7.13805 34.4184 7.47912C35.0649 7.82019 35.6549 8.16937 36.1882 8.52668C36.7216 8.88399 37.1661 9.39559 37.5216 10.0615C37.8934 10.7111 38.0793 11.4582 38.0793 12.3028C38.0793 13.5858 37.6509 14.6578 36.7943 15.5186C35.9539 16.3794 34.7417 16.8097 33.1577 16.8097Z" fill="#303233"/>
<path d="M48.2237 15.1288C47.4803 16.2494 46.4539 16.8097 45.1448 16.8097C43.8356 16.8097 42.8093 16.1439 42.0658 14.8121V21H40.3445V4.75058H42.0658V6.43155C42.4052 5.83063 42.8497 5.35151 43.3992 4.9942C43.9487 4.63689 44.5306 4.45824 45.1448 4.45824C46.4539 4.45824 47.4803 5.01856 48.2237 6.13921C48.9672 7.25986 49.339 8.75406 49.339 10.6218C49.339 12.4896 48.9672 13.9919 48.2237 15.1288ZM44.7084 15.2506C45.6296 15.2506 46.3246 14.8202 46.7933 13.9594C47.2782 13.0824 47.5207 11.9698 47.5207 10.6218C47.5207 9.27378 47.2782 8.16937 46.7933 7.30858C46.3246 6.4478 45.6296 6.0174 44.7084 6.0174C44.175 6.0174 43.6578 6.20418 43.1567 6.57773C42.6719 6.93504 42.3082 7.38167 42.0658 7.91763V13.3016C42.3082 13.8376 42.6719 14.3005 43.1567 14.6903C43.6578 15.0638 44.175 15.2506 44.7084 15.2506Z" fill="#303233"/>
<path d="M59.4093 16.5174H57.6637V15.2506C56.9364 16.29 55.9101 16.8097 54.5847 16.8097C53.5988 16.8097 52.7584 16.4524 52.0634 15.7378C51.3845 15.0232 51.0451 14.0731 51.0451 12.8875C51.0451 11.7019 51.3845 10.7599 52.0634 10.0615C52.7422 9.36311 53.5827 9.01392 54.5847 9.01392C55.9424 9.01392 56.9687 9.5174 57.6637 10.5244V8.47796C57.6637 7.68214 57.4536 7.06497 57.0334 6.62645C56.6131 6.18794 56.0232 5.96868 55.2636 5.96868C54.1483 5.96868 53.1705 6.4478 52.3301 7.40603L51.5542 6.16357C52.6371 5.02668 53.9625 4.45824 55.5303 4.45824C56.7425 4.45824 57.688 4.77494 58.3668 5.40835C59.0618 6.02552 59.4093 6.98376 59.4093 8.28306V16.5174ZM55.1423 15.5429C56.2737 15.5429 57.1142 15.0476 57.6637 14.0568V11.8155C57.1304 10.8086 56.2899 10.3051 55.1423 10.3051C54.4312 10.3051 53.8655 10.5568 53.4453 11.0603C53.025 11.5476 52.8149 12.1647 52.8149 12.9118C52.8149 13.6589 53.025 14.2842 53.4453 14.7877C53.8655 15.2912 54.4312 15.5429 55.1423 15.5429Z" fill="#303233"/>
<path d="M66.2834 16.8097C64.8126 16.8097 63.6327 16.2251 62.7438 15.0557C61.871 13.8863 61.4346 12.4084 61.4346 10.6218C61.4346 8.83527 61.871 7.36543 62.7438 6.2123C63.6327 5.04292 64.8126 4.45824 66.2834 4.45824C67.6734 4.45824 68.7886 4.97796 69.6291 6.0174L68.6835 7.21114C68.1017 6.41531 67.3501 6.0174 66.4288 6.0174C65.4268 6.0174 64.6429 6.45592 64.0772 7.33295C63.5277 8.20998 63.2529 9.30626 63.2529 10.6218C63.2529 11.9374 63.5277 13.0418 64.0772 13.935C64.6429 14.8121 65.4268 15.2506 66.4288 15.2506C67.3339 15.2506 68.0855 14.8527 68.6835 14.0568L69.6291 15.2506C68.8048 16.29 67.6895 16.8097 66.2834 16.8097Z" fill="#303233"/>
<path d="M75.6361 16.8097C74.1006 16.8097 72.8804 16.2413 71.9753 15.1044C71.0701 13.9513 70.6176 12.4571 70.6176 10.6218C70.6176 8.86775 71.0459 7.40603 71.9025 6.23666C72.7753 5.05104 73.9309 4.45824 75.3694 4.45824C76.8564 4.45824 77.9958 5.04292 78.7878 6.2123C79.5959 7.38167 80 8.86775 80 10.6705V11.2065H72.4116C72.444 12.4246 72.7591 13.4234 73.3572 14.203C73.9552 14.9664 74.7633 15.348 75.7815 15.348C76.8806 15.348 77.81 14.8689 78.5696 13.9107L79.4909 14.9339C78.4726 16.1845 77.1877 16.8097 75.6361 16.8097ZM78.2787 9.91531C78.2625 8.85963 78.012 7.93388 77.5271 7.13805C77.0422 6.32599 76.3149 5.91995 75.3451 5.91995C74.4077 5.91995 73.6885 6.33411 73.1874 7.16241C72.7026 7.97448 72.444 8.89211 72.4116 9.91531H78.2787Z" fill="#303233"/>
</svg>
