<svg width="40" height="40" viewBox="0 0 40 40" fill="none" xmlns="http://www.w3.org/2000/svg">
<path fill-rule="evenodd" clip-rule="evenodd" d="M19.6692 20.3285C18.3318 20.3228 17.0509 19.7807 16.1052 18.8201C15.1596 17.8595 14.6259 16.5583 14.6203 15.1999C14.6238 13.8342 15.1547 12.5243 16.0988 11.552C17.0429 10.5796 18.3249 10.0224 19.6692 10C20.3384 9.99898 21.0012 10.1333 21.6188 10.3951C22.2364 10.657 22.7965 11.0411 23.2664 11.5251C23.7364 12.0091 24.1068 12.5833 24.356 13.2142C24.6052 13.8451 24.7283 14.5201 24.7181 15.1999C24.7265 15.8757 24.6017 16.5465 24.351 17.1726C24.1003 17.7988 23.7287 18.3676 23.2582 18.8455C22.7876 19.3235 22.2277 19.7009 21.6113 19.9556C20.9949 20.2103 20.3346 20.3371 19.6692 20.3285ZM19.6692 13.0629C19.3869 13.0628 19.1075 13.1203 18.8476 13.2321C18.5877 13.344 18.3526 13.5077 18.1563 13.7138C17.96 13.9198 17.8065 14.1639 17.705 14.4314C17.6035 14.699 17.5561 14.9845 17.5655 15.2711C17.5613 15.5496 17.6134 15.826 17.7186 16.0833C17.8238 16.3405 17.9797 16.5731 18.1769 16.7668C18.3741 16.9603 18.6082 17.1108 18.8649 17.2089C19.1216 17.3069 19.3953 17.3504 19.6692 17.3368C19.9414 17.3434 20.2121 17.295 20.4657 17.1944C20.7193 17.0938 20.9506 16.9431 21.1464 16.7509C21.3421 16.5587 21.4983 16.3289 21.6059 16.0749C21.7134 15.8208 21.7702 15.5476 21.7729 15.2711C21.7823 14.9845 21.7348 14.699 21.6333 14.4314C21.5318 14.1639 21.3784 13.9198 21.1821 13.7138C20.9858 13.5077 20.7507 13.344 20.4908 13.2321C20.2309 13.1203 19.9515 13.0628 19.6692 13.0629ZM21.7028 24.6023L24.5778 27.4515C24.7114 27.5871 24.8174 27.7482 24.8897 27.9254C24.962 28.1026 24.9992 28.2926 24.9992 28.4844C24.9992 28.6762 24.962 28.8662 24.8897 29.0434C24.8174 29.2206 24.7114 29.3816 24.5778 29.5172C24.4534 29.6684 24.2979 29.7899 24.1222 29.8733C23.9465 29.9568 23.755 30 23.561 30C23.3671 30 23.1755 29.9568 22.9998 29.8733C22.8242 29.7899 22.6686 29.6684 22.5442 29.5172L19.6692 26.668L16.8643 29.5172C16.7278 29.6589 16.5638 29.77 16.3827 29.8436C16.2016 29.9172 16.0074 29.9516 15.8124 29.9446C15.4237 29.9299 15.052 29.7789 14.7606 29.5172C14.627 29.3816 14.521 29.2206 14.4487 29.0434C14.3764 28.8662 14.3392 28.6762 14.3392 28.4844C14.3392 28.2926 14.3764 28.1026 14.4487 27.9254C14.521 27.7482 14.627 27.5871 14.7606 27.4515L17.7057 24.6023C16.6535 24.2684 15.642 23.8144 14.6904 23.2489C14.3655 23.0325 14.1339 22.6984 14.0427 22.3147C13.9515 21.931 14.0076 21.5264 14.1996 21.1832C14.3066 21.0108 14.447 20.8623 14.6123 20.7467C14.7776 20.6311 14.9643 20.5508 15.1611 20.5109C15.3579 20.4709 15.5606 20.472 15.757 20.5141C15.9533 20.5562 16.1392 20.6385 16.3033 20.7558C17.3297 21.3847 18.5056 21.7171 19.7043 21.7171C20.9029 21.7171 22.0788 21.3847 23.1052 20.7558C23.2693 20.6385 23.4552 20.5562 23.6515 20.5141C23.8479 20.472 24.0506 20.4709 24.2474 20.5109C24.4442 20.5508 24.6309 20.6311 24.7962 20.7467C24.9615 20.8623 25.1019 21.0108 25.2089 21.1832C25.4077 21.5181 25.4749 21.9169 25.3969 22.2998C25.3189 22.6827 25.1015 23.0217 24.7882 23.2489C23.8122 23.8147 22.7774 24.2686 21.7028 24.6023Z" fill="#303233"/>
</svg>
