<svg width="406" height="245" viewBox="0 0 406 245" fill="none" xmlns="http://www.w3.org/2000/svg">
<path d="M134.129 6.94006H51.8282V61.9588H134.129V6.94006Z" fill="white"/>
<path d="M134.446 62.2726H51.5118V6.62634H134.446V62.2726ZM52.1444 61.6451H133.813V7.25384H52.1444V61.6451Z" fill="#EBEBEB"/>
<path d="M59.7799 11.1066C59.7799 11.4789 59.6686 11.8429 59.46 12.1525C59.2515 12.462 58.9551 12.7033 58.6083 12.8458C58.2614 12.9883 57.8798 13.0256 57.5117 12.9529C57.1435 12.8803 56.8053 12.701 56.5399 12.4377C56.2744 12.1745 56.0937 11.839 56.0204 11.4739C55.9472 11.1087 55.9848 10.7302 56.1284 10.3862C56.2721 10.0422 56.5154 9.74823 56.8275 9.54138C57.1396 9.33453 57.5065 9.22412 57.8819 9.22412C58.3853 9.22412 58.8681 9.42245 59.224 9.77549C59.5799 10.1285 59.7799 10.6073 59.7799 11.1066Z" fill="#37474F"/>
<path d="M67.5223 11.1066C67.5223 11.4789 67.411 11.8429 67.2025 12.1525C66.9939 12.462 66.6975 12.7033 66.3507 12.8458C66.0039 12.9883 65.6223 13.0256 65.2541 12.9529C64.8859 12.8803 64.5477 12.701 64.2823 12.4377C64.0168 12.1745 63.8361 11.839 63.7628 11.4739C63.6896 11.1087 63.7272 10.7302 63.8709 10.3862C64.0145 10.0422 64.2578 9.74823 64.5699 9.54138C64.882 9.33453 65.249 9.22412 65.6244 9.22412C66.1277 9.22412 66.6105 9.42245 66.9664 9.77549C67.3224 10.1285 67.5223 10.6073 67.5223 11.1066Z" fill="#EBEBEB"/>
<path d="M75.2585 11.1066C75.2585 11.4789 75.1472 11.8429 74.9386 12.1525C74.7301 12.462 74.4336 12.7033 74.0868 12.8458C73.74 12.9883 73.3584 13.0256 72.9902 12.9529C72.6221 12.8803 72.2839 12.701 72.0184 12.4377C71.753 12.1745 71.5722 11.839 71.499 11.4739C71.4258 11.1087 71.4633 10.7302 71.607 10.3862C71.7507 10.0422 71.9939 9.74823 72.306 9.54138C72.6182 9.33453 72.9851 9.22412 73.3605 9.22412C73.8639 9.22412 74.3466 9.42245 74.7026 9.77549C75.0585 10.1285 75.2585 10.6073 75.2585 11.1066Z" fill="#FFC727"/>
<path d="M134.129 14.9155H51.8282V15.543H134.129V14.9155Z" fill="#EBEBEB"/>
<path d="M323.781 31.7512H76.3204V195.96H323.781V31.7512Z" fill="#DBDBDB"/>
<path d="M321.991 33.7529H78.1232V193.959H321.991V33.7529Z" fill="#263238"/>
<path d="M356.016 208.272H44.092V219.542H356.016V208.272Z" fill="#C7C7C7"/>
<path d="M44.092 208.272L76.3205 195.96H323.787L356.016 208.272H44.092Z" fill="#DBDBDB"/>
<path d="M79.1986 203.905L99.9969 195.96H300.105L320.909 203.905H79.1986Z" fill="#263238"/>
<path d="M308.201 45.9264H91.9002V181.785H308.201V45.9264Z" fill="white"/>
<path d="M308.201 45.9264H91.7168V51.1534H308.201V45.9264Z" fill="#455A64"/>
<path d="M95.911 48.5368C95.9123 48.7939 95.8365 49.0457 95.6934 49.2601C95.5502 49.4746 95.3462 49.642 95.107 49.7413C94.8678 49.8406 94.6043 49.8672 94.3498 49.8178C94.0954 49.7684 93.8614 49.6452 93.6776 49.4638C93.4938 49.2823 93.3685 49.0509 93.3174 48.7988C93.2664 48.5466 93.292 48.2852 93.3909 48.0474C93.4898 47.8097 93.6577 47.6065 93.8732 47.4635C94.0887 47.3205 94.3421 47.2441 94.6014 47.2441C94.9476 47.2441 95.2798 47.3801 95.5252 47.6224C95.7706 47.8646 95.9093 48.1934 95.911 48.5368Z" fill="#C7C7C7"/>
<path d="M101.275 48.5368C101.276 48.7942 101.2 49.0462 101.057 49.2608C100.914 49.4753 100.709 49.6428 100.47 49.7419C100.23 49.841 99.9662 49.8672 99.7116 49.8173C99.4569 49.7674 99.223 49.6436 99.0395 49.4615C98.8559 49.2795 98.7311 49.0475 98.6807 48.7949C98.6304 48.5424 98.6569 48.2807 98.7568 48.0431C98.8567 47.8055 99.0255 47.6027 99.2419 47.4604C99.4582 47.3182 99.7123 47.2429 99.9718 47.2442C100.317 47.2458 100.647 47.3825 100.892 47.6246C101.136 47.8666 101.273 48.1945 101.275 48.5368Z" fill="white"/>
<path d="M106.582 48.5368C106.583 48.7939 106.508 49.0457 106.365 49.2601C106.221 49.4746 106.017 49.642 105.778 49.7413C105.539 49.8406 105.275 49.8672 105.021 49.8178C104.767 49.7684 104.533 49.6452 104.349 49.4638C104.165 49.2823 104.04 49.0509 103.989 48.7988C103.938 48.5466 103.963 48.2852 104.062 48.0474C104.161 47.8097 104.329 47.6065 104.544 47.4635C104.76 47.3205 105.013 47.2441 105.273 47.2441C105.619 47.2441 105.951 47.3801 106.196 47.6224C106.442 47.8646 106.581 48.1934 106.582 48.5368Z" fill="#FFC727"/>
<path d="M341.802 71.1705H59.3682V109.398H341.802V71.1705Z" fill="white"/>
<path d="M342.119 109.711H59.0518V70.8567H342.119V109.711ZM59.6844 109.084H341.486V71.4842H59.6844V109.084Z" fill="#C7C7C7"/>
<path d="M341.802 71.1705H303.267V109.398H341.802V71.1705Z" fill="#71A2FF"/>
<path d="M334.749 101.002L331.188 103.675L324.597 95.0278L322.187 91.8903C322.681 91.6998 323.146 91.4399 323.566 91.1185C324.372 90.506 325.002 89.6947 325.394 88.7654L327.956 92.1162L334.749 101.002Z" fill="white"/>
<path d="M327.728 80.6645C326.602 79.2051 325.078 78.0958 323.336 77.4673C321.595 76.8389 319.709 76.7174 317.9 77.1174C316.092 77.5174 314.436 78.422 313.129 79.7247C311.822 81.0274 310.917 82.6738 310.522 84.4697C310.127 86.2655 310.258 88.1361 310.899 89.8606C311.54 91.5852 312.665 93.0919 314.141 94.203C315.618 95.3141 317.383 95.9833 319.23 96.1317C321.077 96.28 322.928 95.9014 324.565 95.0404C325.897 94.3299 327.046 93.3251 327.924 92.1037C329.127 90.4262 329.758 88.4106 329.722 86.3521C329.687 84.2936 328.988 82.3005 327.728 80.6645ZM323.553 91.106C323.133 91.4274 322.669 91.6874 322.174 91.8778C320.817 92.4094 319.306 92.41 317.948 91.8795C316.59 91.3491 315.485 90.3271 314.857 89.0201C314.229 87.713 314.125 86.2182 314.564 84.8375C315.004 83.4569 315.956 82.2933 317.227 81.5818C318.499 80.8702 319.995 80.6638 321.413 81.0041C322.832 81.3444 324.068 82.2061 324.871 83.4152C325.674 84.6244 325.985 86.0907 325.74 87.5182C325.496 88.9457 324.714 90.228 323.553 91.106Z" fill="white"/>
<path d="M69.4957 78.6879H67.4269V101.886H69.4957V78.6879Z" fill="#263238"/>
<path d="M205.519 124.225L209.485 133.726L205.525 135.351L201.54 125.788L195 130.82V104.07L213.875 122.989L205.519 124.225Z" fill="#263238"/>
<path d="M195.228 100.512C195.009 99.9457 194.902 99.343 194.911 98.7365C194.899 98.1318 195.007 97.5306 195.228 96.9669C195.452 97.5298 195.559 98.1315 195.544 98.7365C195.557 99.3432 195.449 99.9466 195.228 100.512Z" fill="#263238"/>
<path d="M192.147 101.78C191.589 101.533 191.084 101.181 190.661 100.744C190.217 100.327 189.862 99.8253 189.617 99.2698C190.733 99.7831 191.63 100.672 192.147 101.78Z" fill="#263238"/>
<path d="M190.87 104.836C190.301 105.052 189.695 105.158 189.086 105.149C188.474 105.162 187.866 105.055 187.295 104.836C187.865 104.613 188.474 104.506 189.086 104.522C189.695 104.51 190.301 104.617 190.87 104.836Z" fill="#263238"/>
<path d="M192.147 107.892C191.899 108.444 191.547 108.944 191.11 109.366C190.685 109.805 190.178 110.156 189.617 110.402C189.864 109.845 190.219 109.342 190.661 108.921C191.086 108.488 191.591 108.138 192.147 107.892Z" fill="#263238"/>
<path d="M199.586 104.836C200.156 104.616 200.764 104.509 201.376 104.522C201.986 104.507 202.593 104.613 203.16 104.836C202.592 105.055 201.986 105.161 201.376 105.149C200.765 105.159 200.157 105.052 199.586 104.836Z" fill="#263238"/>
<path d="M198.308 101.78C198.831 100.676 199.726 99.788 200.839 99.2698C200.316 100.374 199.421 101.261 198.308 101.78Z" fill="#263238"/>
<path d="M108.416 240.337C106.93 240.833 64.34 240.964 62.7143 239.967C62.0818 239.59 61.7086 233.434 61.4492 225.986C61.3986 224.38 61.348 222.717 61.3164 221.029L57.8627 198.495L86.3275 198.313L89.0158 220.853L88.9083 225.817C88.9083 225.817 105.241 232.995 106.904 234.294C108.568 235.593 109.903 239.835 108.416 240.337Z" fill="#F7A9A0"/>
<path d="M108.416 240.337C106.93 240.833 64.34 240.965 62.7143 239.967C61.9616 239.502 61.5504 230.517 61.3227 221.029L89.0285 220.853L88.9209 225.817C88.9209 225.817 105.253 232.995 106.917 234.294C108.581 235.593 109.903 239.835 108.416 240.337Z" fill="white"/>
<path d="M108.416 240.337C106.93 240.833 64.34 240.965 62.7143 239.967C62.0818 239.59 61.7086 233.435 61.4492 225.986L88.9146 225.817C88.9146 225.817 105.247 232.995 106.911 234.294C108.574 235.593 109.903 239.835 108.416 240.337Z" fill="#D80121"/>
<path d="M107.803 238.649C100.661 238.498 71.8484 238.567 64.7891 238.957C64.7322 238.957 64.7322 238.995 64.7891 239.001C71.8673 239.303 100.68 239.001 107.803 238.762C107.954 238.756 107.954 238.649 107.803 238.649Z" fill="#263238"/>
<path d="M104.172 232.782C103.378 232.762 102.588 232.906 101.854 233.207C101.12 233.507 100.457 233.957 99.9083 234.526C98.9151 235.534 98.3491 236.882 98.327 238.291C98.327 238.329 98.4029 238.335 98.4092 238.291C98.6468 236.887 99.3369 235.598 100.376 234.616C101.415 233.634 102.747 233.012 104.172 232.845C104.176 232.841 104.179 232.836 104.182 232.83C104.184 232.825 104.185 232.819 104.185 232.813C104.185 232.807 104.184 232.802 104.182 232.796C104.179 232.791 104.176 232.786 104.172 232.782Z" fill="#263238"/>
<path d="M91.6915 226.507C88.8323 226.507 85.5241 227.492 83.753 229.814C83.6897 229.908 83.8162 230.002 83.8984 229.958C86.3942 228.651 89.0237 227.612 91.7421 226.858C91.7809 226.844 91.8136 226.816 91.8347 226.781C91.8559 226.745 91.8642 226.704 91.8583 226.663C91.8524 226.622 91.8327 226.584 91.8024 226.556C91.7721 226.528 91.733 226.51 91.6915 226.507Z" fill="#263238"/>
<path d="M93.8991 227.354C91.04 227.323 87.7317 228.339 85.9669 230.661C85.8973 230.749 86.0239 230.849 86.1124 230.805C88.6043 229.494 91.2321 228.455 93.9497 227.705C93.9886 227.691 94.0213 227.663 94.0424 227.628C94.0635 227.592 94.0718 227.551 94.0659 227.51C94.06 227.469 94.0403 227.431 94.01 227.403C93.9797 227.375 93.9406 227.357 93.8991 227.354Z" fill="#263238"/>
<path d="M96.1067 228.201C93.2476 228.17 89.9393 229.18 88.1745 231.508C88.1049 231.596 88.2378 231.69 88.32 231.646C90.8136 230.339 93.441 229.3 96.1573 228.546C96.199 228.535 96.2351 228.509 96.2588 228.473C96.2824 228.437 96.2921 228.394 96.2858 228.352C96.2796 228.309 96.258 228.271 96.225 228.243C96.192 228.215 96.1499 228.2 96.1067 228.201Z" fill="#263238"/>
<path d="M98.3207 229.042C95.4616 229.042 92.1533 230.027 90.3822 232.355C90.3126 232.443 90.4454 232.537 90.5276 232.493C93.0234 231.186 95.6529 230.147 98.3713 229.393C98.4102 229.379 98.4428 229.351 98.464 229.316C98.4851 229.28 98.4934 229.239 98.4875 229.198C98.4816 229.157 98.4619 229.119 98.4316 229.091C98.4013 229.063 98.3622 229.045 98.3207 229.042Z" fill="#263238"/>
<path d="M66.5733 232.223C63.3657 232.223 63.41 237.187 66.605 237.162C69.7999 237.137 69.7872 232.198 66.5733 232.223Z" fill="#263238"/>
<path d="M94.7531 218.933C93.2982 217.747 91.4828 218.933 90.5972 220.188C89.1135 222.336 88.2256 224.833 88.0227 227.429C88.0226 227.44 88.0249 227.451 88.0294 227.461C88.034 227.471 88.0408 227.48 88.0492 227.488C88.0577 227.495 88.0676 227.5 88.0783 227.503C88.0891 227.506 88.1003 227.506 88.1113 227.505C88.123 227.558 88.1473 227.608 88.1821 227.651C88.2169 227.694 88.2613 227.728 88.3117 227.75C88.3621 227.773 88.4172 227.783 88.4724 227.781C88.5277 227.779 88.5816 227.763 88.63 227.737C90.6604 226.331 93.0009 225.082 94.538 223.1C95.4362 221.932 96.1257 220.056 94.7531 218.933ZM91.2677 224.97C90.2872 225.685 89.2752 226.344 88.32 227.097C88.8261 225.685 89.2688 224.254 89.914 222.892C90.217 222.231 90.5635 221.589 90.9514 220.972C91.584 220.037 94.3672 217.659 94.6645 220.74C94.8226 222.441 92.4189 224.116 91.2677 224.97Z" fill="#263238"/>
<path d="M80.9255 228.49C83.4177 228.86 85.9859 228.151 88.4275 227.762C88.4809 227.75 88.5306 227.725 88.5722 227.689C88.6138 227.654 88.6462 227.609 88.6667 227.559C88.6872 227.508 88.6951 227.453 88.6898 227.399C88.6845 227.345 88.6662 227.293 88.6363 227.247C88.6742 227.247 88.6932 227.166 88.6363 227.128C86.677 225.393 84.293 224.199 81.7225 223.664C80.217 223.382 78.0853 223.79 77.8702 225.641C77.6615 227.392 79.4769 228.277 80.9255 228.49ZM79.1986 226.884C77.2567 224.455 80.9318 224.248 82.0324 224.499C82.7429 224.675 83.4403 224.9 84.1199 225.17C85.5166 225.745 86.8826 226.39 88.2125 227.103C86.998 227.216 85.8088 227.436 84.6006 227.599C83.1647 227.787 80.2676 228.22 79.1986 226.884Z" fill="#263238"/>
<path d="M16.0258 94.3251C16.0258 94.3251 49.0892 150.128 49.9748 154.044C51.3348 160.061 61.0824 219.473 61.0824 219.473L88.8008 218.977C88.8008 218.977 85.0814 167.058 79.4643 149.789C75.4223 137.346 48.1847 95.5173 48.1847 95.5173L16.0258 94.3251Z" fill="#F7A9A0"/>
<path d="M45.2559 244.999C43.6935 245.106 1.43273 234.05 0.117021 232.663C0.0556253 232.578 0.0204425 232.478 0.0158104 232.374C-0.154978 231.006 2.00835 225.854 3.52647 219.266C3.62136 218.845 4.41837 216.844 5.53166 214.145C8.59321 206.722 14.0648 193.984 14.0648 193.984L41.2645 200.886L31.4726 221.236L30.1 226.005C30.1 226.005 44.0541 237.074 45.3255 238.756C46.5969 240.437 46.8183 244.918 45.2559 244.999Z" fill="#F7A9A0"/>
<path d="M45.2559 244.999C43.6935 245.106 1.43273 234.049 0.117021 232.663C0.0556253 232.578 0.0204425 232.478 0.0158104 232.374C-0.154978 231.006 2.00835 225.854 3.52647 219.266C3.62136 218.845 4.41837 216.843 5.53166 214.145L31.4979 221.261L30.1253 226.03C30.1253 226.03 44.0793 237.099 45.3508 238.781C46.6222 240.462 46.8183 244.918 45.2559 244.999Z" fill="white"/>
<path d="M45.2559 244.999C43.6872 245.106 1.43274 234.049 0.117034 232.663C-0.382682 232.136 0.711631 226.463 3.52016 219.266L30.1253 226.03C30.1253 226.03 44.0794 237.099 45.3508 238.774C46.6222 240.45 46.8183 244.918 45.2559 244.999Z" fill="#D80121"/>
<path d="M45.0914 243.236C38.2219 241.291 10.3454 234.075 3.40626 232.669C3.34933 232.669 3.33668 232.669 3.40626 232.713C10.1682 234.79 38.108 241.774 45.0788 243.349C45.2116 243.38 45.2369 243.274 45.0914 243.236Z" fill="#263238"/>
<path d="M43.0799 236.647C42.3153 236.433 41.5141 236.378 40.727 236.486C39.9398 236.594 39.1838 236.862 38.5066 237.275C37.2707 237.998 36.3643 239.167 35.9764 240.538C35.9764 240.582 36.0396 240.601 36.0586 240.538C36.6461 239.241 37.6422 238.168 38.897 237.482C40.1518 236.795 41.5975 236.531 43.0167 236.729C43.0276 236.737 43.0414 236.741 43.055 236.739C43.0687 236.737 43.081 236.73 43.0894 236.719C43.0978 236.709 43.1015 236.695 43.0997 236.681C43.098 236.668 43.0908 236.656 43.0799 236.647Z" fill="#263238"/>
<path d="M32.6239 227.429C29.8723 226.676 26.4122 226.802 24.1034 228.622C24.0149 228.691 24.1034 228.816 24.211 228.797C26.9582 228.164 29.7658 227.823 32.5859 227.781C32.6266 227.775 32.6642 227.756 32.6928 227.727C32.7214 227.698 32.7394 227.66 32.7437 227.62C32.7481 227.579 32.7387 227.539 32.7169 227.504C32.6952 227.47 32.6625 227.443 32.6239 227.429Z" fill="#263238"/>
<path d="M34.5468 228.803C31.7889 228.057 28.3288 228.176 26.02 230.002C25.9314 230.071 26.02 230.197 26.1275 230.171C28.8748 229.538 31.6823 229.197 34.5025 229.155C34.5436 229.15 34.5819 229.132 34.6113 229.104C34.6408 229.075 34.6596 229.037 34.6647 228.997C34.6698 228.956 34.6609 228.915 34.6396 228.88C34.6182 228.845 34.5855 228.818 34.5468 228.803Z" fill="#263238"/>
<path d="M36.4635 230.178C33.7055 229.431 30.2455 229.55 27.943 231.376C27.8544 231.445 27.943 231.571 28.0442 231.546C30.7937 230.913 33.6033 230.572 36.4255 230.529C36.4662 230.524 36.5038 230.505 36.5324 230.476C36.561 230.447 36.5789 230.409 36.5833 230.368C36.5877 230.328 36.5782 230.287 36.5565 230.253C36.5348 230.218 36.502 230.192 36.4635 230.178Z" fill="#263238"/>
<path d="M38.3864 231.558C35.6285 230.805 32.1684 230.931 29.8596 232.751C29.771 232.82 29.8596 232.945 29.9671 232.926C32.7136 232.287 35.5215 231.945 38.3421 231.903C38.3848 231.903 38.4258 231.887 38.4576 231.859C38.4894 231.831 38.5098 231.792 38.5152 231.75C38.5206 231.708 38.5106 231.665 38.4869 231.63C38.4632 231.595 38.4275 231.569 38.3864 231.558Z" fill="#263238"/>
<path d="M6.86687 226.614C3.76051 225.823 2.52049 230.611 5.60155 231.401C8.68261 232.192 9.97957 227.429 6.86687 226.614Z" fill="#263238"/>
<path d="M37.5324 220.878C36.4318 219.366 34.3697 220.038 33.1995 221.01C31.2078 222.715 29.7063 224.913 28.8475 227.379C28.8436 227.39 28.8422 227.401 28.8434 227.413C28.8447 227.424 28.8485 227.435 28.8546 227.445C28.8606 227.454 28.8689 227.463 28.8786 227.469C28.8883 227.475 28.8993 227.478 28.9108 227.48C28.9108 227.693 29.1132 227.919 29.3536 227.831C31.675 226.984 34.2622 226.369 36.2547 224.844C37.4186 223.953 38.5698 222.309 37.5324 220.878ZM32.6112 225.836C31.4789 226.275 30.334 226.664 29.2144 227.147C30.0259 225.882 30.9021 224.659 31.8395 223.482C32.3005 222.919 32.7992 222.386 33.3323 221.889C34.1736 221.142 37.4882 219.548 36.9821 222.604C36.7038 224.292 33.9585 225.308 32.6112 225.836Z" fill="#263238"/>
<path d="M21.7123 226.626C24.0211 227.618 26.6842 227.574 29.1448 227.818C29.1999 227.82 29.2545 227.808 29.3042 227.785C29.3538 227.761 29.3971 227.726 29.4305 227.682C29.4638 227.639 29.4863 227.588 29.496 227.534C29.5057 227.481 29.5024 227.425 29.4864 227.373C29.4973 227.369 29.5072 227.363 29.5154 227.355C29.5235 227.346 29.5296 227.337 29.5333 227.326C29.5369 227.315 29.538 227.303 29.5365 227.292C29.5349 227.28 29.5308 227.27 29.5243 227.26C28.0712 225.083 26.0664 223.324 23.7112 222.158C22.3322 221.531 20.1689 221.368 19.4794 223.1C18.7899 224.832 20.3587 226.049 21.7123 226.626ZM20.4472 224.637C19.1821 221.801 22.8003 222.529 23.7997 223.049C24.443 223.396 25.0603 223.788 25.6468 224.223C26.8513 225.127 28.0063 226.095 29.1069 227.122C27.905 226.927 26.6968 226.84 25.4887 226.689C24.0528 226.513 21.143 226.174 20.4472 224.637Z" fill="#263238"/>
<path d="M32.2506 219.692L6.06934 212.872C6.06934 212.872 30.7388 154.477 30.5111 150.486C30.2961 146.947 10.9463 118.835 8.96642 109.818C6.88533 100.349 11.6864 91.834 16.2091 86.6007L48.1846 95.5425C48.1846 95.5425 45.6544 101.027 40.9609 104.497C40.9609 104.497 61.0507 137.754 61.5694 148.729C62.0881 159.704 32.2506 219.692 32.2506 219.692Z" fill="#F7A9A0"/>
<path d="M85.9859 188.525C77.9842 191.555 67.5028 194.8 57.1985 195.961C55.9903 188.7 54.6683 180.763 53.4728 173.741C50.3923 181.089 46.831 189.002 43.5164 196.149C33.8632 195.527 24.2882 194.025 14.9124 191.662C21.9717 174.519 30.6567 152.877 30.5112 150.498C30.2961 146.966 10.9463 118.848 8.96646 109.837C6.88536 100.362 11.6864 91.8465 16.2092 86.5881L48.1847 95.5299C48.1847 95.5299 75.4223 137.365 79.4643 149.802C82.1274 157.985 84.3666 173.986 85.9859 188.525Z" fill="#263238"/>
<path d="M16.2092 86.5756L50.5884 95.988C50.5884 95.988 75.4034 138.846 78.8192 145.855C83.2091 154.828 86.1378 181.327 86.1378 181.327C69.8243 193.011 16.9556 190.464 14.5203 189.152C14.5203 189.152 29.5244 153.134 29.594 150.762C29.7268 146.439 6.89804 119.776 7.58119 103.97C8.05561 92.9823 16.2092 86.5756 16.2092 86.5756Z" fill="#37474F"/>
<path d="M48.267 122.594C48.0835 119.381 47.8558 116.162 47.5331 112.955C47.526 112.921 47.5074 112.891 47.4803 112.869C47.4532 112.847 47.4194 112.835 47.3844 112.835C47.3495 112.835 47.3157 112.847 47.2886 112.869C47.2615 112.891 47.2429 112.921 47.2358 112.955C47.356 116.174 47.5711 119.393 47.8305 122.6C48.0899 125.806 48.4252 129.019 48.6593 132.238C48.6593 132.301 48.7668 132.301 48.7605 132.238C48.5517 129.032 48.4568 125.813 48.267 122.594Z" fill="#263238"/>
<path d="M57.6919 141.168C57.2617 140.245 56.7873 139.335 56.3192 138.432C55.8511 137.528 55.4147 136.581 54.9529 135.658C53.9872 133.721 53.03 131.78 52.0811 129.835C52.0305 129.722 51.8344 129.835 51.8851 129.923C53.399 133.328 54.8749 136.752 56.3129 140.195C57.6413 143.332 59.0076 146.639 59.1278 150.109C59.2606 153.73 58.0018 157.213 56.8126 160.576C55.5475 164.109 54.333 167.648 53.2008 171.243C52.5682 173.264 51.8155 175.272 51.2462 177.324C50.9679 178.322 50.6136 179.3 50.3037 180.292C49.9937 181.283 49.6711 182.375 49.3169 183.429C49.3169 183.492 49.3865 183.517 49.4118 183.429C49.7407 182.52 50.1013 181.628 50.4555 180.725C50.8097 179.821 51.1323 178.842 51.5182 177.926C52.2519 176.176 52.9035 174.387 53.574 172.618C54.9276 169.06 56.2244 165.483 57.5021 161.9C58.7293 158.474 60.0323 154.96 60.1905 151.289C60.3359 147.737 59.1467 144.343 57.6919 141.168Z" fill="#263238"/>
<path d="M42.1564 25.5078C37.096 28.6453 34.395 35.1022 34.395 35.1022C34.395 35.1022 28.9045 40.9756 29.1828 44.8786C29.2402 45.9854 29.5671 47.0618 30.1356 48.0159C30.704 48.9699 31.497 49.7731 32.4467 50.3566L32.51 48.242C32.51 48.242 33.2501 51.141 37.4439 53.1804C41.6377 55.2197 47.8114 55.1758 51.2082 54.3224C53.2224 53.8297 55.0729 52.8265 56.5786 51.4108L54.7695 54.1028C56.2481 54.2695 57.7453 54.0702 59.1273 53.5227C60.5092 52.9752 61.733 52.0965 62.689 50.9653C66.2756 46.9933 60.4119 38.8233 60.1082 37.2796C59.8046 35.736 61.3354 25.3133 50.0696 24.6544C50.0696 24.6356 45.6101 23.3367 42.1564 25.5078Z" fill="#263238"/>
<path d="M30.9349 49.7416C29.9214 48.7242 29.1687 47.4804 28.74 46.1147C28.3392 44.7318 28.4194 43.2553 28.9677 41.923C29.7367 40.3873 30.778 39.0015 32.0419 37.8318C33.2564 36.5768 34.5721 35.3594 35.774 34.0668C35.8372 33.9915 35.7297 33.8974 35.6538 33.9476C34.4321 34.857 33.2641 35.8354 32.1558 36.878C31.052 37.8069 30.0607 38.8597 29.2018 40.0155C28.4095 41.0826 27.9399 42.3515 27.8481 43.6738C27.8301 44.7612 28.0752 45.8371 28.5629 46.8112C29.1517 47.931 29.9258 48.9449 30.8527 49.8107C30.856 49.819 30.8613 49.8265 30.8681 49.8324C30.8749 49.8384 30.883 49.8426 30.8918 49.8449C30.9005 49.8471 30.9097 49.8472 30.9186 49.8451C30.9274 49.8431 30.9356 49.839 30.9425 49.8332C30.9494 49.8274 30.9549 49.8201 30.9583 49.8118C30.9618 49.8035 30.9632 49.7945 30.9625 49.7855C30.9617 49.7765 30.9589 49.7679 30.9541 49.7603C30.9493 49.7526 30.9427 49.7462 30.9349 49.7416Z" fill="#263238"/>
<path d="M64.6689 46.4725C64.2198 42.4126 61.3416 39.2563 60.007 35.5038C59.2859 33.4708 58.862 31.3059 57.7424 29.4297C57.7108 29.3795 57.6286 29.4297 57.6539 29.4862C58.5394 31.1428 58.8557 32.975 59.3681 34.7634C59.9356 36.5529 60.6793 38.2827 61.5883 39.9277C63.1634 42.971 65.0547 46.5791 63.7453 50.0555C63.1444 51.6556 61.7465 53.2682 59.95 53.4063C59.8805 53.4063 59.8931 53.5255 59.95 53.513C60.686 53.3955 61.3902 53.1308 62.0199 52.7349C62.6495 52.339 63.1914 51.8202 63.6125 51.21C64.5236 49.8066 64.8983 48.1261 64.6689 46.4725Z" fill="#263238"/>
<path d="M64.5867 47.5266C65.0359 46.1264 65.0359 44.6223 64.5867 43.222C64.0405 41.8705 63.2028 40.654 62.1324 39.6578C60.9748 38.4531 59.7413 37.2859 59.1973 35.6733C59.1898 35.664 59.1796 35.6573 59.168 35.6542C59.1565 35.6511 59.1442 35.6516 59.133 35.6558C59.1218 35.66 59.1122 35.6675 59.1056 35.6774C59.099 35.6873 59.0957 35.699 59.0961 35.7109C59.9311 38.3652 62.2905 40.0406 63.6062 42.4063C65.1054 45.1108 64.3653 48.3926 62.398 50.6641C61.1635 52.0519 59.613 53.1276 57.8753 53.8016C57.8753 53.8016 57.8753 53.8581 57.8753 53.8455C60.823 52.716 63.6695 50.6516 64.5867 47.5266Z" fill="#263238"/>
<path d="M46.6855 58.15C49.5889 64.5003 64.302 73.2538 71.1968 74.2014C76.156 74.8791 91.2234 75.1238 96.385 74.3457C102.439 73.4358 97.8272 57.2276 94.247 57.6418C84.4172 58.7713 76.0738 60.0325 73.4487 60.0325C70.248 60.0325 52.9098 54.498 50.8223 53.7199C45.7113 51.8123 45.0345 54.5482 46.6855 58.15Z" fill="#F7A9A0"/>
<path d="M92.4189 57.8174C98.4029 57.0456 105.804 55.7153 112.072 58.3634C112.775 58.6376 113.364 59.1396 113.742 59.7878C116.57 60.9235 116.905 62.5927 116.905 62.5927C119.214 64.4752 119.296 66.1945 119.296 66.1945C119.296 66.1945 122.598 67.5624 122.098 69.6834C121.542 72.0616 117.038 69.6834 113.704 69.8716C106.114 70.3297 95.5058 73.0844 93.3361 73.4295L92.4189 57.8174Z" fill="#F7A9A0"/>
<path d="M105.431 64.8266C107.645 64.6657 109.869 64.6552 112.085 64.7953C114.496 65.1002 116.881 65.5826 119.22 66.2385C119.235 66.2435 119.252 66.2423 119.266 66.2353C119.28 66.2282 119.291 66.2158 119.296 66.2008C119.301 66.1859 119.3 66.1695 119.293 66.1554C119.286 66.1413 119.273 66.1305 119.258 66.1256C114.863 64.412 110.078 63.928 105.424 64.7262C105.323 64.7451 105.323 64.8266 105.431 64.8266Z" fill="#263238"/>
<path d="M104.488 60.3337C106.664 60.3337 110.485 60.4403 116.88 62.6617C116.88 62.6617 116.924 62.6617 116.88 62.624C113.05 60.6977 108.754 59.8677 104.475 60.227C104.355 60.2395 104.349 60.3274 104.488 60.3337Z" fill="#263238"/>
<path d="M104.033 57.9116C107.727 58.0999 110.029 58.6897 113.749 59.7941C113.749 59.7941 113.787 59.7627 113.749 59.7564C109.662 58.0497 107.98 57.874 104.007 57.7736C103.881 57.7798 103.887 57.8991 104.033 57.9116Z" fill="#263238"/>
<path d="M104.621 71.0011C103.659 71.4466 103.887 71.9486 105.728 72.3753C107.569 72.802 115.216 72.9275 114.938 75.5693C114.659 78.211 103.887 77.8722 100.876 76.9309C97.8652 75.9897 93.3361 73.4295 93.3361 73.4295C95.4488 73.0656 100.484 71.7415 104.621 71.0011Z" fill="#F7A9A0"/>
<path d="M45.8189 58.8404C49.1651 64.0674 60.5383 72.7707 60.5383 72.7707L62.2462 69.2756L67.9392 57.7171C67.9392 57.7171 57.3693 54.084 50.3985 52.4023C49.5781 52.196 48.7427 52.0533 47.9 51.9756C43.4025 51.6116 42.9344 54.3475 45.8189 58.8404Z" fill="#D80121"/>
<path d="M59.0962 55.5585C59.1977 56.0496 59.2401 56.5509 59.2227 57.0519C59.2191 57.5513 59.1554 58.0484 59.0329 58.5328C58.9313 58.0438 58.8888 57.5446 58.9064 57.0456C58.9135 56.5444 58.9771 56.0456 59.0962 55.5585Z" fill="white"/>
<path d="M60.3992 61.6143C61.3943 61.4251 62.4182 61.4465 63.4044 61.6773C62.9092 61.7783 62.4038 61.8206 61.8986 61.8033C61.3933 61.7963 60.8904 61.7329 60.3992 61.6143Z" fill="white"/>
<path d="M45.4014 52.9863C45.8944 52.8851 46.3977 52.8428 46.9008 52.8603C47.4063 52.8642 47.9096 52.9276 48.4002 53.0493C47.905 53.1504 47.3996 53.1926 46.8944 53.1753C46.3912 53.1687 45.8903 53.1053 45.4014 52.9863Z" fill="white"/>
<path d="M53.549 59.1854C53.2673 59.6021 52.9383 59.9853 52.5684 60.3275C52.2082 60.6791 51.8067 60.9867 51.3727 61.2436C51.9416 60.4134 52.6811 59.712 53.5427 59.1854H53.549Z" fill="white"/>
<path d="M59.1597 66.4078C58.5909 67.2359 57.854 67.937 56.996 68.466C57.2737 68.0482 57.6008 67.6648 57.9703 67.324C58.3314 66.9759 58.7303 66.6686 59.1597 66.4078Z" fill="white"/>
<path d="M45.8189 58.8404C49.1651 64.0674 60.5384 72.7707 60.5384 72.7707L62.2462 69.2756C58.0588 64.1678 51.5941 56.4245 47.8747 51.9756C43.4025 51.6116 42.9344 54.3475 45.8189 58.8404Z" fill="#263238"/>
<path d="M58.5079 70.3487C59.4567 68.2214 63.6442 59.6812 64.6753 57.8552C64.7448 57.7297 64.8397 57.7423 64.7828 57.8552C62.947 62.1283 60.882 66.3009 58.5964 70.3549C58.5711 70.4302 58.4889 70.3989 58.5079 70.3487Z" fill="#263238"/>
<path d="M55.0985 66.9914C55.2061 68.0644 55.2504 69.1688 55.2504 70.2732C55.2475 70.2314 55.2475 70.1895 55.2504 70.1477C55.3769 69.5579 55.5034 68.9492 55.6806 68.3719C55.6806 68.3405 55.7438 68.3405 55.7438 68.3719C55.6993 68.9844 55.5976 69.5915 55.4401 70.1854C55.3684 70.4698 55.2925 70.7522 55.2124 71.0325C55.2124 71.5219 55.2124 72.0114 55.1555 72.4946C55.0922 73.417 54.7759 77.3451 54.6683 78.0165C54.6683 78.1546 54.4848 78.1483 54.4722 78.0165C54.4216 77.3074 54.5797 73.2413 54.5924 72.3189C54.629 70.5391 54.7642 68.7627 54.9973 66.9977C55.0099 66.9412 55.0985 66.9538 55.0985 66.9914Z" fill="#263238"/>
<path d="M52.8339 98.9121C52.8339 98.9121 37.9626 98.9749 11.7877 90.5351C11.7877 90.5351 29.9735 59.8694 40.4675 52.8854C45.2496 49.7102 48.8425 51.1911 51.4044 54.5357C52.0369 55.3702 58.957 69.9721 58.7799 74.4712C58.6218 78.4432 54.5228 81.9447 54.5228 81.9447L52.8339 98.9121Z" fill="#D80121"/>
<path d="M46.7804 65.1403C46.8893 65.6285 46.9423 66.1274 46.9386 66.6274C46.9455 67.1276 46.8924 67.6268 46.7804 68.1146C46.6684 67.6268 46.6153 67.1276 46.6222 66.6274C46.6185 66.1274 46.6715 65.6285 46.7804 65.1403Z" fill="white"/>
<path d="M42.7004 82.2334C42.8093 82.7217 42.8623 83.2205 42.8586 83.7206C42.8655 84.2207 42.8124 84.72 42.7004 85.2077C42.5884 84.72 42.5353 84.2207 42.5422 83.7206C42.5385 83.2205 42.5915 82.7217 42.7004 82.2334Z" fill="white"/>
<path d="M30.2012 71.66C30.4121 72.6404 30.4121 73.654 30.2012 74.6344C30.0892 74.1466 30.0361 73.6474 30.0431 73.1472C30.0393 72.6472 30.0924 72.1483 30.2012 71.66Z" fill="white"/>
<path d="M53.1059 79.968C53.3168 80.9484 53.3168 81.9619 53.1059 82.9423C52.9939 82.4546 52.9408 81.9554 52.9477 81.4552C52.944 80.9551 52.997 80.4563 53.1059 79.968Z" fill="white"/>
<path d="M37.387 68.5608C37.8787 68.4493 38.3821 68.3964 38.8864 68.4033C39.3908 68.3933 39.8945 68.4462 40.3858 68.5608C39.3973 68.7708 38.3754 68.7708 37.387 68.5608Z" fill="white"/>
<path d="M26.7158 81.7884C27.7064 81.5785 28.7303 81.5785 29.721 81.7884C28.7303 81.9984 27.7064 81.9984 26.7158 81.7884Z" fill="white"/>
<path d="M42.8965 92.2802C43.885 92.0702 44.9068 92.0702 45.8953 92.2802C44.9068 92.4902 43.885 92.4902 42.8965 92.2802Z" fill="white"/>
<path d="M24.0528 90.2595C25.0434 90.0496 26.0673 90.0496 27.0579 90.2595C26.0673 90.4694 25.0434 90.4694 24.0528 90.2595Z" fill="white"/>
<path d="M45.1484 54.1786C46.1369 53.9686 47.1587 53.9686 48.1472 54.1786C47.1587 54.3886 46.1369 54.3886 45.1484 54.1786Z" fill="white"/>
<path d="M39.9176 56.1232C39.3663 56.9647 38.6419 57.6811 37.7918 58.2253C38.0604 57.8022 38.379 57.4125 38.7408 57.0644C39.0955 56.7071 39.4903 56.3913 39.9176 56.1232Z" fill="white"/>
<path d="M24.2935 72.7079C24.0215 73.1285 23.7032 73.5179 23.3445 73.8688C22.9921 74.226 22.5994 74.5419 22.1741 74.81C22.4408 74.3856 22.7596 73.9957 23.1231 73.6491C23.474 73.2903 23.8669 72.9743 24.2935 72.7079Z" fill="white"/>
<path d="M49.2919 74.4838C49.0177 74.9046 48.6973 75.2939 48.3366 75.6446C47.9857 76.0035 47.5928 76.3195 47.1662 76.5859C47.7174 75.7443 48.4418 75.028 49.2919 74.4838Z" fill="white"/>
<path d="M34.9457 86.4752C34.6737 86.8959 34.3555 87.2852 33.9967 87.6361C33.6443 87.9934 33.2516 88.3092 32.8263 88.5773C33.3774 87.7379 34.0993 87.0219 34.9457 86.4752Z" fill="white"/>
<path d="M53.4288 60.2272C52.8783 61.071 52.1539 61.7895 51.3031 62.3356C51.8518 61.4924 52.5741 60.7739 53.4225 60.2272H53.4288Z" fill="white"/>
<path d="M54.7003 71.66C54.2745 71.39 53.8798 71.0743 53.5235 70.7188C53.1632 70.367 52.8448 69.9754 52.5745 69.5516C53.4269 70.0957 54.1517 70.8146 54.7003 71.66Z" fill="white"/>
<path d="M20.7575 84.3605C19.9112 83.8139 19.1893 83.0979 18.6381 82.2584C19.066 82.523 19.4591 82.8391 19.8085 83.1997C20.1704 83.5477 20.489 83.9375 20.7575 84.3605Z" fill="white"/>
<path d="M52.8469 89.4181C52.4242 89.1464 52.0319 88.8308 51.6765 88.4768C51.3162 88.1251 50.9978 87.7334 50.7275 87.3097C51.5759 87.8564 52.2982 88.5749 52.8469 89.4181Z" fill="white"/>
<path d="M33.6932 64.9584C32.8409 64.4143 32.116 63.6954 31.5675 62.85C32.4198 63.394 33.1447 64.113 33.6932 64.9584Z" fill="white"/>
<path d="M38.4437 96.8163C38.0164 96.5483 37.6216 96.2324 37.2669 95.8751C36.9051 95.527 36.5865 95.1373 36.3179 94.7142C36.7452 94.9823 37.14 95.2981 37.4947 95.6555C37.8516 96.008 38.1697 96.3971 38.4437 96.8163Z" fill="white"/>
<path d="M38.4248 77.64C37.5724 77.0959 36.8475 76.377 36.299 75.5316C37.1514 76.0757 37.8762 76.7946 38.4248 77.64Z" fill="white"/>
<path d="M36.9316 59.6498C34.4646 66.4958 37.9879 91.6019 42.1564 96.8979C48.3618 104.773 60.5953 112.021 65.2762 114.28C67.313 115.265 76.485 100.732 74.4862 99.3702C70.2038 96.4524 56.5217 89.4935 55.3641 88.1067C54.2066 86.72 47.9696 73.4359 45.471 65.9624C42.1185 55.935 38.1714 56.186 36.9316 59.6498Z" fill="#F7A9A0"/>
<path d="M65.2888 114.323C71.7788 117.994 84.6892 117.461 86.4477 116.928C87.9531 116.476 88.7249 116.231 88.7249 116.231C91.4322 115.478 92.1659 113.985 92.1659 113.985C92.1659 113.985 95.5564 114.028 95.9233 112.002C96.3408 109.724 91.4954 110.119 88.6995 108.707C82.2918 105.488 74.0939 99.1318 72.3418 98.0399L65.2888 114.323Z" fill="#F7A9A0"/>
<path d="M79.5972 110.013C81.461 110.977 83.3883 111.816 85.366 112.523C87.5775 113.157 89.8335 113.626 92.1154 113.928C92.1305 113.928 92.1449 113.934 92.1556 113.945C92.1663 113.955 92.1723 113.97 92.1723 113.985C92.1723 114 92.1663 114.014 92.1556 114.025C92.1449 114.035 92.1305 114.041 92.1154 114.041C87.64 113.919 83.284 112.582 79.5213 110.176C79.4264 110.088 79.5023 109.962 79.5972 110.013Z" fill="#263238"/>
<path d="M77.0733 113.564C78.9709 114.348 82.3298 115.704 88.7249 116.162V116.2C84.6633 116.479 80.6033 115.634 76.9974 113.759C76.8898 113.696 76.9468 113.514 77.0733 113.564Z" fill="#263238"/>
<path d="M81.2291 104.34C80.5586 103.593 80.9508 103.242 82.7093 103.562C84.4677 103.882 91.1601 106.611 91.9255 104.189C92.6909 101.767 83.1963 98.0712 80.2233 97.7638C77.2503 97.4563 72.1836 97.9959 72.1836 97.9959C73.8852 99.1129 77.9145 102.156 81.2291 104.34Z" fill="#F7A9A0"/>
<path d="M43.8263 61.3754C39.4997 52.3583 35.5525 54.7302 35.173 63.6532C34.8188 72.0051 36.008 82.2333 36.008 82.2333L51.6953 77.7718L43.8263 61.3754Z" fill="#D80121"/>
<path d="M46.7804 65.1403C46.8893 65.6285 46.9423 66.1274 46.9386 66.6274C46.9455 67.1276 46.8924 67.6268 46.7804 68.1146C46.6684 67.6268 46.6153 67.1276 46.6222 66.6274C46.6185 66.1274 46.6715 65.6285 46.7804 65.1403Z" fill="white"/>
<path d="M37.387 68.5608C37.8787 68.4493 38.3821 68.3964 38.8864 68.4033C39.3908 68.3933 39.8945 68.4462 40.3858 68.5608C39.3973 68.7708 38.3754 68.7708 37.387 68.5608Z" fill="white"/>
<path d="M39.9176 56.1232C39.3663 56.9647 38.6419 57.6811 37.7918 58.2253C38.0604 57.8022 38.379 57.4125 38.7408 57.0644C39.0955 56.7071 39.4903 56.3913 39.9176 56.1232Z" fill="white"/>
<path d="M49.2919 74.4838C49.0177 74.9046 48.6973 75.2939 48.3366 75.6446C47.9857 76.0035 47.5928 76.3195 47.1662 76.5859C47.7174 75.7443 48.4418 75.028 49.2919 74.4838Z" fill="white"/>
<path d="M38.4248 77.64C37.5724 77.0959 36.8475 76.377 36.299 75.5316C37.1514 76.0757 37.8762 76.7946 38.4248 77.64Z" fill="white"/>
<path d="M45.3318 64.1238C45.9137 65.3098 46.5336 66.4769 47.1472 67.644C47.0397 67.0918 46.9574 66.5334 46.8942 65.9686C46.8942 65.9373 46.9258 65.9373 46.9321 65.9686C47.0207 66.4079 47.1282 66.8471 47.2105 67.2864C47.2484 67.4997 47.2927 67.7131 47.3306 67.9139C47.3306 67.9578 47.3306 68.0017 47.3623 68.0519C47.8367 68.9618 48.3111 69.8716 48.7665 70.8003C49.3042 71.9047 49.8166 73.0217 50.3289 74.1323C50.8413 75.243 51.3284 76.6109 51.904 77.7404C51.4086 77.9369 50.8963 78.0881 50.3732 78.1922C50.234 78.2424 50.1708 78.1044 50.31 78.0856C50.4491 78.0667 51.6257 77.6024 51.6383 77.5898C51.1259 76.4666 50.4871 75.3999 49.9431 74.2955C49.3991 73.1911 48.8424 72.093 48.3237 70.9823C47.2611 68.7233 46.3312 66.4079 45.2812 64.1363C45.2685 64.1175 45.3128 64.0987 45.3318 64.1238Z" fill="#263238"/>
<path d="M34.5215 69.5015C34.667 69.9658 34.8315 70.4239 34.9454 70.8945C34.996 71.089 35.0466 71.2898 35.0909 71.4781C35.0318 69.8717 34.9791 68.2611 34.9327 66.6464C35.1541 69.2818 35.3882 71.9173 35.5654 74.5591C35.8109 77.0867 35.927 79.625 35.9133 82.1643C36.3874 82.0516 36.8697 81.9761 37.3558 81.9384C36.8389 82.1633 36.2943 82.3195 35.7362 82.4028C35.4166 79.7636 35.2329 77.1101 35.1858 74.4524C35.1478 73.7308 35.1288 73.0029 35.0972 72.2813C35.0086 71.8295 34.8821 71.3902 34.7619 70.9447C34.6417 70.4992 34.5468 69.9972 34.4456 69.5203C34.4645 69.4889 34.5088 69.4764 34.5215 69.5015Z" fill="#263238"/>
<path d="M36.6532 79.8801C38.8608 79.102 48.0392 76.2344 50.038 75.7449C50.1772 75.7136 50.2341 75.7888 50.0949 75.8453C45.7047 77.4568 41.2303 78.833 36.6912 79.968C36.6342 79.968 36.5963 79.9052 36.6532 79.8801Z" fill="#263238"/>
<path d="M45.4393 50.708C47.4192 50.9904 49.7091 52.4776 51.4675 55.0503C53.0173 57.3218 54.3836 60.5158 53.2324 61.1119C51.904 61.8084 49.4371 58.8718 49.4371 58.8718C49.4371 58.8718 49.9051 63.5027 47.4445 63.1701C44.5664 62.781 42.0995 58.696 41.7516 55.9727C41.3404 53.0737 41.9793 50.2186 45.4393 50.708Z" fill="white"/>
<path d="M42.4979 53.0297C42.6687 53.7137 45.9959 58.0936 49.1334 57.9053C50.1581 57.8426 50.0632 52.3018 50.0632 52.3018L50.1518 51.8877L51.3726 46.1398L44.5284 41.8979L43.5416 41.3395C43.5416 41.3395 43.3139 42.9333 43.0419 44.9225L43.004 45.2048C43.004 45.3178 43.004 45.4245 42.9597 45.5311C42.9154 45.8261 42.8711 46.1273 42.8332 46.4347C42.7952 46.7422 42.7763 46.8865 42.7573 47.1313C42.7383 47.376 42.7067 47.6082 42.675 47.8529C42.4955 49.5724 42.4363 51.3021 42.4979 53.0297Z" fill="#F7A9A0"/>
<path d="M43.042 44.9225C43.646 46.5261 44.5949 47.9799 45.8228 49.1827C47.0506 50.3856 48.5279 51.3086 50.1519 51.8877L51.3727 46.1398L44.5285 41.8979L43.5417 41.3395C43.5417 41.3395 43.314 42.9459 43.042 44.9225Z" fill="#263238"/>
<path d="M60.3802 38.1455C60.4815 48.4615 54.2635 49.6851 52.0179 49.7039C49.9874 49.7039 43.0547 49.522 41.8971 39.275C40.7395 29.028 45.5279 25.7148 50.1772 25.4324C54.8264 25.1501 60.279 27.8295 60.3802 38.1455Z" fill="#F7A9A0"/>
<path d="M58.6726 36.5957C58.4322 36.5518 58.2171 36.4702 57.983 36.4075C57.7298 36.3734 57.4945 36.2589 57.3124 36.0812C57.2636 36.017 57.2372 35.9388 57.2372 35.8584C57.2372 35.778 57.2636 35.6998 57.3124 35.6356C57.437 35.5302 57.5876 35.4596 57.7488 35.4309C57.91 35.4022 58.076 35.4166 58.2297 35.4725C58.5583 35.5417 58.8492 35.7296 59.0459 35.9996C59.0857 36.0614 59.107 36.1332 59.1075 36.2065C59.108 36.2799 59.0875 36.3519 59.0485 36.4142C59.0095 36.4765 58.9535 36.5267 58.887 36.5588C58.8204 36.5909 58.7461 36.6037 58.6726 36.5957Z" fill="#263238"/>
<path d="M51.9357 36.3822C52.1736 36.3615 52.4101 36.328 52.6443 36.2818C52.9009 36.2782 53.1495 36.1923 53.3529 36.0371C53.4003 35.9711 53.4258 35.8922 53.4258 35.8112C53.4258 35.7302 53.4003 35.6512 53.3529 35.5853C53.241 35.4669 53.0995 35.3802 52.9428 35.3339C52.7861 35.2876 52.6198 35.2834 52.4609 35.3217C52.1278 35.3512 51.8171 35.5008 51.5878 35.7421C51.5358 35.8018 51.5033 35.8758 51.4947 35.9541C51.4861 36.0325 51.5016 36.1117 51.5394 36.1811C51.5771 36.2505 51.6352 36.3069 51.706 36.3428C51.7768 36.3787 51.8569 36.3925 51.9357 36.3822Z" fill="#263238"/>
<path d="M53.144 39.0616C53.144 39.0616 53.0934 39.0616 53.0934 39.1244C53.0934 39.8272 52.9606 40.6304 52.3152 40.8375V40.8814C53.1061 40.7998 53.2579 39.7331 53.144 39.0616Z" fill="#263238"/>
<path d="M52.5684 38.3088C51.436 38.1833 51.2588 40.4422 52.309 40.5615C53.3592 40.6807 53.4921 38.4154 52.5684 38.3088Z" fill="#263238"/>
<path d="M52.0877 38.3965C51.879 38.5095 51.6638 38.7166 51.4234 38.7228C51.183 38.7291 50.9489 38.4781 50.7908 38.2334H50.7465C50.7085 38.6664 50.8414 39.1244 51.3032 39.2248C51.7651 39.3252 52.0624 38.955 52.2079 38.5283C52.2332 38.4718 52.17 38.3463 52.0877 38.3965Z" fill="#263238"/>
<path d="M57.1479 39.0804C57.1479 39.0804 57.1985 39.1181 57.1985 39.1432C57.1163 39.846 57.1416 40.6555 57.7616 40.9441C57.7616 40.9441 57.7616 40.988 57.7616 40.9818C56.9961 40.8061 56.9581 39.7268 57.1479 39.0804Z" fill="#263238"/>
<path d="M57.8375 38.4028C58.9826 38.4028 58.8814 40.6743 57.8375 40.668C56.7936 40.6617 56.8822 38.3902 57.8375 38.4028Z" fill="#263238"/>
<path d="M58.3118 38.5533C58.4826 38.6788 58.6534 38.9047 58.8685 38.9298C59.0836 38.9549 59.3114 38.7228 59.5012 38.4906H59.5392C59.5392 38.9298 59.362 39.3691 58.9065 39.4381C58.451 39.5071 58.2738 39.1118 58.1726 38.6726C58.1726 38.6412 58.2612 38.5533 58.3118 38.5533Z" fill="#263238"/>
<path d="M52.6378 44.4644C52.7833 44.6464 52.9225 44.8911 53.1756 44.9413C53.4378 44.968 53.7029 44.9402 53.9537 44.8597C53.9537 44.8597 53.998 44.8597 53.9537 44.8974C53.8373 45.0227 53.6885 45.1141 53.5235 45.1617C53.3584 45.2092 53.1834 45.2111 53.0174 45.1672C52.8787 45.1139 52.7591 45.0212 52.6735 44.9006C52.5879 44.78 52.5403 44.6369 52.5366 44.4895C52.5682 44.4456 52.6125 44.4393 52.6378 44.4644Z" fill="#263238"/>
<path d="M55.7314 42.1175C55.7314 42.1175 55.8073 43.1717 55.7757 43.6674C55.7757 43.7113 55.6492 43.7301 55.4783 43.7301C55.0463 43.7803 54.6087 43.7114 54.2136 43.5309C53.8185 43.3505 53.4812 43.0655 53.2387 42.7073C53.2387 42.6571 53.2767 42.6132 53.3146 42.6446C53.923 43.1159 54.6686 43.38 55.4404 43.3976C55.4847 43.2658 55.2442 41.5966 55.3265 41.5904C55.7106 41.6497 56.085 41.7594 56.44 41.9167C56.3387 39.7142 55.8832 37.5242 55.8073 35.3468C55.8117 35.3327 55.8206 35.3205 55.8325 35.3118C55.8445 35.303 55.8589 35.2983 55.8737 35.2983C55.8886 35.2983 55.903 35.303 55.915 35.3118C55.9269 35.3205 55.9358 35.3327 55.9402 35.3468C56.5002 37.6597 56.8245 40.0226 56.9081 42.3998C56.9524 42.6508 55.9465 42.2116 55.7314 42.1175Z" fill="#263238"/>
<path d="M55.4467 43.5357C55.1335 43.9211 54.7232 44.2176 54.2573 44.3953C54.0005 44.4791 53.7233 44.4791 53.4665 44.3953C52.8971 44.2259 52.8971 43.7051 53.0173 43.2596C53.0816 43.0251 53.1751 42.7996 53.2957 42.5881C53.8917 43.1246 54.6458 43.4568 55.4467 43.5357Z" fill="#263238"/>
<path d="M54.2573 44.3953C54.0005 44.4791 53.7233 44.4791 53.4665 44.3953C52.8971 44.2259 52.8971 43.705 53.0173 43.2595C53.3235 43.2805 53.6133 43.4045 53.8388 43.611C54.0643 43.8175 54.212 44.0942 54.2573 44.3953Z" fill="#FF99BA"/>
<path d="M42.7826 39.8084C45.3128 39.9025 46.6602 32.1906 46.812 31.2431C46.7487 31.8706 46.4198 35.0081 46.6538 35.1838C46.9291 35.1945 47.2044 35.1628 47.4698 35.0896C47.4967 34.7068 47.5559 34.3269 47.647 33.9539C47.7157 34.3115 47.7433 34.6757 47.7292 35.0394L48.2099 34.9453C48.2428 34.127 48.3853 33.3167 48.6337 32.5357C48.7349 32.2345 48.7096 33.6025 48.9121 34.8135C51.1349 34.3491 53.4027 34.1303 55.674 34.1609C56.3066 34.1609 56.8632 34.2362 57.344 34.2927C57.4199 33.3515 57.3882 32.3349 57.4389 32.5546C57.5877 33.1403 57.6767 33.7395 57.7045 34.3429C57.9639 34.3429 58.2106 34.4119 58.4256 34.4496C58.5901 33.1193 58.1094 30.9419 58.2991 31.3121C58.863 32.3611 59.2214 33.5066 59.3555 34.688C60.26 34.9328 60.5004 35.1336 60.5384 34.8951C60.4669 32.2318 59.4345 29.6824 57.6286 27.7103C54.6683 24.4975 48.3744 23.2802 44.4462 27.5973C44.4462 27.5973 41.3531 29.2916 40.6509 32.3349C39.9488 35.3783 41.3088 39.7519 42.7826 39.8084Z" fill="#263238"/>
<path d="M44.2193 39.8522C44.2193 39.8522 42.2074 36.47 40.6764 37.1603C39.1453 37.8505 40.4866 42.632 42.1631 43.3976C42.3705 43.5109 42.5989 43.5813 42.8344 43.6046C43.07 43.6279 43.3079 43.6037 43.5338 43.5333C43.7596 43.463 43.9688 43.3479 44.1486 43.1952C44.3284 43.0424 44.4751 42.8551 44.5799 42.6446L44.2193 39.8522Z" fill="#F7A9A0"/>
<path d="M41.0937 38.5533C41.0937 38.5533 41.0558 38.5533 41.0937 38.5973C42.2641 39.1746 42.8146 40.3354 43.1688 41.5214C43.1079 41.3965 43.0204 41.2863 42.9124 41.1981C42.8044 41.11 42.6784 41.0462 42.5431 41.011C42.4078 40.9758 42.2664 40.9701 42.1287 40.9943C41.991 41.0185 41.8602 41.072 41.7454 41.1512C41.7137 41.1512 41.7454 41.2202 41.7454 41.2202C41.9624 41.1688 42.1902 41.1852 42.3974 41.2672C42.6047 41.3492 42.7813 41.4928 42.9031 41.6783C43.1015 41.9933 43.2668 42.3276 43.3966 42.676C43.4472 42.7889 43.6497 42.745 43.618 42.6195V42.5881C43.7699 41.0633 42.7386 38.8043 41.0937 38.5533Z" fill="#263238"/>
</svg>
