<svg width="336" height="327" viewBox="0 0 336 327" fill="none" xmlns="http://www.w3.org/2000/svg">
<path d="M219.124 25.0675L218.697 25.3135L220.16 27.8421L220.587 27.5961L219.124 25.0675Z" fill="#EBEBEB"/>
<path d="M224.495 19.4948L224.248 19.9209L226.775 21.3767L227.022 20.9506L224.495 19.4948Z" fill="#EBEBEB"/>
<path d="M142.445 104.104H139.575L140.295 99.9907H141.725L142.445 104.104Z" fill="#263238"/>
<path d="M145.354 149.621H142.493L143.204 145.507H144.643L145.354 149.621Z" fill="#263238"/>
<path d="M336 27.5499H248.797V137.127H336V27.5499Z" fill="#EBEBEB"/>
<path d="M324.901 50.1913H259.596V52.2643H324.901V50.1913Z" fill="#DBDBDB"/>
<path d="M314.894 54.5308H259.596V56.6037H314.894V54.5308Z" fill="#DBDBDB"/>
<path d="M301.766 58.8622H259.596V60.9352H301.766V58.8622Z" fill="#DBDBDB"/>
<path d="M322.621 63.2015H259.596V65.2745H322.621V63.2015Z" fill="#DBDBDB"/>
<path d="M317.262 67.5331H259.596V69.6061H317.262V67.5331Z" fill="#DBDBDB"/>
<path d="M319.437 76.2039H259.596V78.2768H319.437V76.2039Z" fill="#DBDBDB"/>
<path d="M282.52 80.5436H259.596V82.6165H282.52V80.5436Z" fill="#DBDBDB"/>
<path d="M305.824 84.875H259.596V86.948H305.824V84.875Z" fill="#DBDBDB"/>
<path d="M322.621 89.2145H259.596V91.2874H322.621V89.2145Z" fill="#DBDBDB"/>
<path d="M313.94 93.5459H259.596V95.6189H313.94V93.5459Z" fill="#DBDBDB"/>
<path d="M318.483 102.217H259.596V104.29H318.483V102.217Z" fill="#DBDBDB"/>
<path d="M295.243 106.556H259.596V108.629H295.243V106.556Z" fill="#DBDBDB"/>
<path d="M295.243 119.68H259.596V121.753H295.243V119.68Z" fill="#DBDBDB"/>
<path d="M319.397 128.343C323.044 128.343 326.001 125.392 326.001 121.753C326.001 118.113 323.044 115.163 319.397 115.163C315.75 115.163 312.793 118.113 312.793 121.753C312.793 125.392 315.75 128.343 319.397 128.343Z" fill="#FADB7D"/>
<path d="M269.329 35.995C270.122 35.9954 270.893 36.2593 271.519 36.7451C271.545 36.7641 271.567 36.7881 271.583 36.8158C271.599 36.8434 271.609 36.874 271.613 36.9058C271.617 36.9375 271.614 36.9697 271.605 37.0004C271.596 37.031 271.58 37.0594 271.56 37.0839C271.541 37.1091 271.518 37.1303 271.491 37.1464C271.465 37.1625 271.435 37.1731 271.404 37.1776C271.373 37.1821 271.342 37.1804 271.312 37.1726C271.281 37.1649 271.253 37.1512 271.228 37.1323C270.688 36.7036 270.019 36.4704 269.329 36.4709C268.542 36.4709 267.788 36.7828 267.231 37.3379C266.675 37.8931 266.363 38.646 266.363 39.4311C266.363 40.2162 266.675 40.9692 267.231 41.5243C267.788 42.0795 268.542 42.3913 269.329 42.3913C270.014 42.4017 270.681 42.1703 271.212 41.738C271.237 41.717 271.266 41.7017 271.298 41.6931C271.33 41.6845 271.363 41.6828 271.395 41.6881C271.427 41.6935 271.458 41.7058 271.485 41.7241C271.512 41.7425 271.535 41.7665 271.552 41.7945C271.576 41.8156 271.595 41.8417 271.608 41.8709C271.621 41.9001 271.628 41.9318 271.628 41.9638C271.628 41.9959 271.621 42.0276 271.608 42.0568C271.595 42.086 271.576 42.112 271.552 42.1332C270.922 42.6111 270.152 42.869 269.361 42.8672C268.909 42.8672 268.461 42.7784 268.043 42.6057C267.626 42.433 267.246 42.1799 266.926 41.8608C266.607 41.5417 266.353 41.163 266.18 40.7461C266.007 40.3292 265.918 39.8824 265.918 39.4311C265.918 38.9799 266.007 38.5331 266.18 38.1162C266.353 37.6993 266.607 37.3205 266.926 37.0014C267.246 36.6823 267.626 36.4292 268.043 36.2566C268.461 36.0839 268.909 35.995 269.361 35.995H269.329Z" fill="#A6A6A6"/>
<path d="M276.336 35.9949C277.025 35.9594 277.709 36.1311 278.3 36.4877C278.891 36.8443 279.361 37.3694 279.649 37.9953C279.937 38.6212 280.031 39.319 279.918 39.9986C279.805 40.6782 279.49 41.3084 279.015 41.8076C278.539 42.3069 277.924 42.6524 277.25 42.7994C276.576 42.9464 275.872 42.8882 275.232 42.6323C274.591 42.3764 274.041 41.9346 273.655 41.3639C273.268 40.7932 273.062 40.12 273.062 39.4311C273.048 38.9902 273.122 38.551 273.28 38.1389C273.437 37.7268 273.675 37.35 273.979 37.0303C274.284 36.7107 274.649 36.4545 275.053 36.2768C275.458 36.0991 275.894 36.0033 276.336 35.9949ZM276.336 42.3913C276.928 42.4252 277.518 42.2808 278.027 41.9768C278.537 41.6728 278.943 41.2232 279.194 40.6862C279.445 40.1491 279.528 39.5493 279.434 38.9644C279.339 38.3795 279.071 37.8363 278.664 37.4052C278.256 36.9741 277.729 36.6749 277.149 36.5463C276.57 36.4177 275.965 36.4655 275.413 36.6837C274.861 36.9019 274.387 37.2804 274.053 37.7702C273.719 38.26 273.54 38.8386 273.539 39.4311C273.517 40.1935 273.8 40.9334 274.324 41.4884C274.848 42.0434 275.572 42.3681 276.336 42.3913Z" fill="#A6A6A6"/>
<path d="M281.85 37.092V42.6333C281.856 42.6671 281.855 42.7019 281.846 42.7352C281.837 42.7685 281.822 42.7994 281.8 42.8259C281.778 42.8524 281.75 42.8737 281.719 42.8883C281.688 42.9029 281.654 42.9105 281.619 42.9105C281.585 42.9105 281.551 42.9029 281.52 42.8883C281.488 42.8737 281.461 42.8524 281.439 42.8259C281.417 42.7994 281.401 42.7685 281.392 42.7352C281.384 42.7019 281.382 42.6671 281.389 42.6333V36.4225C281.373 36.3765 281.372 36.3266 281.386 36.28C281.401 36.2335 281.43 36.193 281.47 36.1644C281.522 36.1292 281.585 36.1155 281.647 36.126C281.709 36.1365 281.764 36.1705 281.801 36.2209L285.915 41.8671V36.358C285.915 36.2973 285.939 36.239 285.981 36.1954C286.023 36.1517 286.081 36.1262 286.141 36.1241C286.173 36.123 286.204 36.1282 286.234 36.1395C286.263 36.1508 286.29 36.1678 286.312 36.1897C286.335 36.2115 286.353 36.2376 286.365 36.2666C286.378 36.2955 286.384 36.3266 286.384 36.358V42.593C286.384 42.6244 286.378 42.6555 286.365 42.6844C286.353 42.7133 286.335 42.7395 286.312 42.7613C286.29 42.7831 286.263 42.8002 286.234 42.8115C286.204 42.8227 286.173 42.828 286.141 42.8269C286.107 42.8266 286.073 42.8185 286.042 42.8031C286.011 42.7877 285.985 42.7655 285.964 42.7382C285.954 42.735 285.946 42.7297 285.939 42.7227C285.932 42.7157 285.926 42.7072 285.923 42.6979L281.85 37.092Z" fill="#A6A6A6"/>
<path d="M290.491 36.5677H288.446C288.383 36.5656 288.324 36.5392 288.28 36.494C288.236 36.4489 288.212 36.3885 288.212 36.3257C288.214 36.2643 288.239 36.206 288.283 36.1625C288.326 36.1191 288.385 36.0938 288.446 36.0918H293.005C293.066 36.0938 293.125 36.1191 293.168 36.1625C293.212 36.206 293.237 36.2643 293.239 36.3257C293.239 36.3885 293.215 36.4489 293.171 36.494C293.127 36.5392 293.068 36.5656 293.005 36.5677H290.96V42.6333C290.96 42.6954 290.935 42.7549 290.891 42.7987C290.847 42.8426 290.788 42.8672 290.726 42.8672C290.663 42.8672 290.604 42.8426 290.56 42.7987C290.516 42.7549 290.491 42.6954 290.491 42.6333V36.5677Z" fill="#A6A6A6"/>
<path d="M298.428 41.3347C298.429 41.1319 298.379 40.9322 298.283 40.7534C298.187 40.5746 298.048 40.4224 297.879 40.3103C297.633 40.1478 297.359 40.0329 297.071 39.9715H297.022H295.406V42.6494C295.395 42.705 295.366 42.7553 295.322 42.7915C295.279 42.8276 295.224 42.8474 295.167 42.8474C295.11 42.8474 295.056 42.8276 295.012 42.7915C294.969 42.7553 294.939 42.705 294.929 42.6494V36.3418C294.932 36.2847 294.954 36.2304 294.992 36.1878C295.031 36.1453 295.082 36.1171 295.139 36.1079H297.079C297.518 36.1125 297.942 36.2655 298.283 36.5419C298.623 36.8184 298.86 37.2019 298.953 37.6298C299.047 38.0578 298.993 38.5049 298.799 38.898C298.605 39.2911 298.284 39.607 297.887 39.7941C297.917 39.815 297.949 39.8313 297.984 39.8425C298.257 39.9895 298.486 40.207 298.647 40.4722C298.808 40.7375 298.894 41.0409 298.897 41.3508C298.883 41.6222 298.91 41.8942 298.978 42.1574C298.996 42.2186 299.029 42.2742 299.075 42.3187C299.13 42.3124 299.186 42.3239 299.234 42.3515C299.282 42.3791 299.32 42.4213 299.342 42.472C299.357 42.5341 299.35 42.5995 299.322 42.6569C299.294 42.7143 299.247 42.7602 299.188 42.7866H299.051C298.957 42.7775 298.867 42.7435 298.79 42.6883C298.713 42.633 298.653 42.5583 298.614 42.472C298.457 42.1147 298.393 41.7234 298.428 41.3347ZM297.071 36.5677H295.397V39.4876H297.111C297.499 39.4822 297.869 39.3233 298.14 39.0457C298.41 38.7681 298.559 38.3947 298.554 38.0075C298.548 37.6203 298.389 37.251 298.111 36.981C297.833 36.711 297.459 36.5623 297.071 36.5677Z" fill="#A6A6A6"/>
<path d="M304.799 41.1169H301.703L301.105 42.7301C301.088 42.7748 301.059 42.8134 301.02 42.8408C300.981 42.8681 300.934 42.883 300.887 42.8834H300.798C300.739 42.8583 300.692 42.8118 300.666 42.7533C300.641 42.6948 300.639 42.6288 300.66 42.5688L303.012 36.2934C303.034 36.2496 303.067 36.2127 303.109 36.1871C303.15 36.1614 303.198 36.1479 303.247 36.1482C303.296 36.1458 303.345 36.1584 303.387 36.1843C303.428 36.2103 303.461 36.2483 303.481 36.2934L305.833 42.5688C305.856 42.6269 305.856 42.6913 305.834 42.7495C305.811 42.8077 305.768 42.8555 305.712 42.8834H305.623C305.574 42.8824 305.527 42.8675 305.487 42.8403C305.447 42.8131 305.415 42.7748 305.397 42.7301L304.799 41.1169ZM301.881 40.641H304.629L303.255 37.0032L301.881 40.641Z" fill="#A6A6A6"/>
<path d="M310.189 35.995C310.983 35.9954 311.753 36.2593 312.38 36.7451C312.405 36.7641 312.427 36.7881 312.443 36.8158C312.459 36.8434 312.469 36.874 312.473 36.9058C312.477 36.9375 312.474 36.9697 312.465 37.0004C312.456 37.031 312.441 37.0594 312.42 37.0839C312.402 37.1091 312.378 37.1303 312.352 37.1464C312.325 37.1625 312.295 37.1731 312.264 37.1776C312.234 37.1821 312.202 37.1804 312.172 37.1726C312.142 37.1649 312.113 37.1512 312.089 37.1323C311.549 36.7036 310.879 36.4704 310.189 36.4709C309.402 36.4709 308.648 36.7828 308.092 37.3379C307.535 37.8931 307.223 38.646 307.223 39.4311C307.223 40.2162 307.535 40.9692 308.092 41.5243C308.648 42.0795 309.402 42.3913 310.189 42.3913C310.874 42.4017 311.541 42.1703 312.072 41.738C312.097 41.717 312.127 41.7017 312.158 41.6931C312.19 41.6845 312.223 41.6828 312.255 41.6881C312.287 41.6935 312.318 41.7058 312.345 41.7241C312.372 41.7425 312.395 41.7665 312.412 41.7945C312.436 41.8156 312.455 41.8417 312.468 41.8709C312.482 41.9001 312.489 41.9318 312.489 41.9638C312.489 41.9959 312.482 42.0276 312.468 42.0568C312.455 42.086 312.436 42.112 312.412 42.1332C311.782 42.6111 311.013 42.869 310.222 42.8672C309.769 42.8672 309.322 42.7784 308.904 42.6057C308.486 42.433 308.107 42.1799 307.787 41.8608C307.467 41.5417 307.213 41.163 307.04 40.7461C306.867 40.3292 306.778 39.8824 306.778 39.4311C306.778 38.9799 306.867 38.5331 307.04 38.1162C307.213 37.6993 307.467 37.3205 307.787 37.0014C308.107 36.6823 308.486 36.4292 308.904 36.2566C309.322 36.0839 309.769 35.995 310.222 35.995H310.189Z" fill="#A6A6A6"/>
<path d="M316.212 36.5677H314.167C314.104 36.5656 314.045 36.5392 314.001 36.494C313.957 36.4489 313.933 36.3885 313.933 36.3257C313.935 36.2643 313.96 36.206 314.004 36.1625C314.047 36.1191 314.105 36.0938 314.167 36.0918H318.726C318.787 36.0938 318.846 36.1191 318.889 36.1625C318.933 36.206 318.958 36.2643 318.96 36.3257C318.961 36.3571 318.956 36.3884 318.945 36.4177C318.933 36.447 318.916 36.4738 318.894 36.4964C318.872 36.5189 318.846 36.5369 318.817 36.5491C318.788 36.5614 318.757 36.5677 318.726 36.5677H316.681V42.6333C316.681 42.6954 316.656 42.7549 316.612 42.7987C316.568 42.8426 316.508 42.8672 316.446 42.8672C316.384 42.8672 316.325 42.8426 316.281 42.7987C316.237 42.7549 316.212 42.6954 316.212 42.6333V36.5677Z" fill="#A6A6A6"/>
<path d="M219.091 196.403H207.839L207.136 190.911H219.802L219.091 196.403ZM208.583 195.597H218.404L218.905 191.717H208.073L208.583 195.597Z" fill="#DBDBDB"/>
<path d="M219.091 223.989H207.839L207.136 218.496H219.802L219.091 223.989ZM208.583 223.183H218.404L218.905 219.303H208.073L208.583 223.183Z" fill="#DBDBDB"/>
<path d="M166.67 327C247.224 327 312.525 318.51 312.525 308.037C312.525 297.564 247.224 289.074 166.67 289.074C86.1162 289.074 20.8145 297.564 20.8145 308.037C20.8145 318.51 86.1162 327 166.67 327Z" fill="#BFDFFF"/>
<path d="M235.888 250.849C235.888 250.849 235.888 285.59 235.888 285.614C235.888 292.252 235.831 298.076 235.5 301.085C235.504 301.092 235.506 301.1 235.506 301.109C235.506 301.117 235.504 301.126 235.5 301.133C235.5 301.847 235.334 302.551 235.015 303.19L234.974 303.23C233.002 304.577 179.814 306.4 177.939 305.835C176.063 305.271 177.51 299.899 179.555 298.181C181.6 296.463 201.623 286.687 201.623 286.687L201.954 251.963L235.888 250.849Z" fill="#AD6359"/>
<path d="M235.879 278.475V285.614C235.879 292.252 235.823 298.076 235.491 301.084C235.495 301.092 235.498 301.1 235.498 301.109C235.498 301.117 235.495 301.126 235.491 301.133C235.407 301.834 235.245 302.524 235.006 303.19L234.966 303.23C232.993 304.577 179.805 306.4 177.93 305.835C176.054 305.271 177.501 299.899 179.546 298.181C181.592 296.463 201.614 286.687 201.614 286.687L201.517 279.427L235.879 278.475Z" fill="#C7C7C7"/>
<path d="M177.93 305.835C179.806 306.4 232.994 304.585 234.974 303.23C235.734 302.73 235.92 294.979 235.88 285.614V285.316L201.55 286.122L201.59 286.703C201.59 286.703 181.544 296.487 179.523 298.205C177.502 299.923 176.047 305.295 177.93 305.835Z" fill="#263238"/>
<path d="M178.456 303.763C187.42 303.23 223.601 301.956 232.493 302.149C232.566 302.149 232.566 302.198 232.493 302.206C223.601 302.916 187.436 303.908 178.464 303.94C178.278 303.908 178.27 303.771 178.456 303.763Z" fill="#455A64"/>
<path d="M198.696 286.888C202.204 286.082 206.536 286.501 209.317 288.921C209.43 289.018 209.317 289.163 209.179 289.131C205.77 288.162 202.266 287.559 198.729 287.332C198.676 287.327 198.626 287.303 198.589 287.265C198.552 287.226 198.53 287.177 198.526 287.124C198.522 287.071 198.537 287.018 198.568 286.975C198.599 286.932 198.645 286.901 198.696 286.888Z" fill="#455A64"/>
<path d="M196.207 288.509C199.706 287.703 204.047 288.122 206.827 290.542C206.932 290.631 206.827 290.784 206.682 290.752C203.272 289.781 199.769 289.178 196.231 288.953C196.178 288.946 196.13 288.921 196.094 288.883C196.058 288.844 196.036 288.794 196.034 288.741C196.031 288.689 196.046 288.636 196.078 288.594C196.11 288.552 196.155 288.522 196.207 288.509Z" fill="#455A64"/>
<path d="M193.71 290.123C197.218 289.316 201.55 289.744 204.33 292.155C204.444 292.252 204.33 292.405 204.193 292.373C200.784 291.401 197.28 290.796 193.742 290.566C193.689 290.561 193.64 290.537 193.603 290.499C193.566 290.461 193.544 290.411 193.54 290.358C193.536 290.305 193.551 290.253 193.582 290.209C193.613 290.166 193.658 290.136 193.71 290.123Z" fill="#455A64"/>
<path d="M238.935 122.059L238.903 124.358L237.602 225.877L237.593 226.264L236.826 287.074L199.594 286.332L206.78 122.18L206.877 119.986L207.241 100.943H238.685L238.935 122.059Z" fill="#323434"/>
<path d="M201.153 280.137C206.965 280.08 205.291 280.016 211.103 280.032C213.949 280.032 232.645 280.105 235.297 280.572C235.353 280.572 235.353 280.685 235.297 280.693C232.629 281.097 213.941 280.693 211.095 280.645C205.283 280.524 206.957 280.492 201.145 280.306C201.127 280.3 201.111 280.288 201.101 280.272C201.09 280.256 201.085 280.238 201.086 280.219C201.087 280.2 201.094 280.182 201.106 280.167C201.118 280.152 201.134 280.142 201.153 280.137Z" fill="#232325"/>
<path d="M217.829 132.739C217.829 132.722 217.822 132.705 217.81 132.693C217.798 132.681 217.781 132.674 217.764 132.674C217.747 132.674 217.731 132.681 217.719 132.693C217.706 132.705 217.7 132.722 217.7 132.739C217.7 142.458 217.304 147.903 217.069 157.614C216.835 167.326 216.552 177.037 216.261 186.741C215.736 206.155 214.951 225.554 214.232 244.961C213.828 255.845 213.324 266.723 212.721 277.596C212.721 277.611 212.727 277.625 212.737 277.636C212.748 277.647 212.762 277.653 212.777 277.653C212.792 277.653 212.807 277.647 212.817 277.636C212.828 277.625 212.834 277.611 212.834 277.596C214.248 258.238 215.598 238.815 216.374 219.4C217.15 199.985 217.7 180.578 217.788 161.163C217.869 150.266 217.805 143.636 217.829 132.739Z" fill="#232325"/>
<path d="M238.927 122.059L237.602 225.877L212.648 100.943H238.677L238.927 122.059Z" fill="#232325"/>
<path d="M277.646 248.97C277.646 248.97 282.335 283.388 282.335 283.412C283.272 289.994 283.951 295.777 284.048 298.802C284.048 298.802 284.048 298.802 284.048 298.85C284.143 299.555 284.076 300.272 283.854 300.947C283.853 300.963 283.853 300.98 283.854 300.996C282.076 302.609 229.615 311.562 227.683 311.256C225.751 310.949 226.463 305.432 228.217 303.456C229.971 301.48 248.53 289.098 248.53 289.098L244.165 254.648L277.646 248.97Z" fill="#AD6359"/>
<path d="M281.373 276.346C281.373 276.346 282.335 283.388 282.335 283.412C283.272 289.994 283.951 295.777 284.048 298.802C284.048 298.802 284.048 298.802 284.048 298.85C284.063 299.554 283.998 300.258 283.854 300.947C283.854 300.963 283.854 300.98 283.854 300.996C282.076 302.609 229.615 311.562 227.683 311.256C225.751 310.949 226.463 305.432 228.217 303.456C229.971 301.48 248.53 289.098 248.53 289.098L247.423 281.903L281.373 276.346Z" fill="#C7C7C7"/>
<path d="M227.651 311.256C229.591 311.562 282.043 302.601 283.822 300.996C284.509 300.391 283.644 292.696 282.334 283.412L282.286 283.122L248.384 288.526L248.498 289.098C248.498 289.098 229.954 301.488 228.184 303.464C226.414 305.44 225.678 310.941 227.651 311.256Z" fill="#263238"/>
<path d="M227.893 309.126C236.704 307.4 272.351 301.262 281.243 300.254C281.316 300.254 281.324 300.294 281.243 300.31C272.553 302.214 236.833 308.061 227.942 309.304C227.731 309.328 227.707 309.166 227.893 309.126Z" fill="#455A64"/>
<path d="M245.668 289.687C249.038 288.445 253.387 288.251 256.466 290.268C256.587 290.349 256.466 290.518 256.353 290.502C252.845 289.997 249.292 289.869 245.757 290.123C245.704 290.124 245.652 290.106 245.611 290.073C245.569 290.04 245.541 289.994 245.53 289.942C245.519 289.89 245.527 289.836 245.553 289.79C245.578 289.743 245.619 289.707 245.668 289.687Z" fill="#455A64"/>
<path d="M243.413 291.623C246.783 290.381 251.132 290.187 254.211 292.212C254.333 292.284 254.211 292.454 254.098 292.438C250.59 291.936 247.037 291.809 243.502 292.059C243.449 292.06 243.397 292.042 243.356 292.009C243.314 291.976 243.286 291.93 243.275 291.878C243.264 291.826 243.272 291.772 243.298 291.725C243.323 291.679 243.364 291.643 243.413 291.623Z" fill="#455A64"/>
<path d="M241.165 293.567C244.535 292.325 248.876 292.131 251.963 294.148C252.085 294.228 251.963 294.398 251.85 294.382C248.342 293.872 244.789 293.745 241.254 294.003C241.201 294.004 241.149 293.986 241.108 293.953C241.066 293.92 241.038 293.874 241.027 293.822C241.016 293.77 241.024 293.716 241.05 293.669C241.075 293.623 241.116 293.587 241.165 293.567Z" fill="#455A64"/>
<path d="M210.441 100.911C210.579 101.556 212.777 111.735 215.057 120.479C216.714 126.867 218.42 132.481 219.398 133.062C220.505 133.715 225.905 136.102 227.715 136.853L235.985 215.762L247.164 288.824L283.717 283.178L257.705 123.278L253.469 100.911H210.441Z" fill="#323434"/>
<path d="M247.382 281.492C253.121 280.573 251.424 280.75 257.211 279.879C260.024 279.459 278.519 276.725 281.211 276.798C281.267 276.798 281.284 276.894 281.211 276.911C278.64 277.717 260.097 280.137 257.276 280.492C251.513 281.234 253.162 280.96 247.39 281.645C247.376 281.638 247.365 281.628 247.356 281.615C247.348 281.602 247.343 281.587 247.342 281.571C247.341 281.556 247.344 281.54 247.351 281.526C247.358 281.512 247.369 281.501 247.382 281.492Z" fill="#232325"/>
<path d="M268.52 259.673C267.607 254.608 266.702 249.543 265.764 244.477C263.894 234.346 262.008 224.218 260.106 214.092C256.29 193.825 252.518 173.542 248.789 153.243C246.704 141.789 246.752 142.862 244.933 131.351C244.933 131.279 244.788 131.287 244.804 131.351C246.55 141.579 245.725 139.337 247.374 149.581C249.023 159.824 250.753 169.85 252.572 179.957C256.226 200.275 260.057 220.561 263.929 240.839C265.007 246.529 266.109 252.21 267.235 257.883C268.367 263.674 269.66 269.433 270.857 275.209C270.857 275.338 271.091 275.33 271.067 275.209C270.226 270.038 269.466 264.844 268.52 259.673Z" fill="#232325"/>
<path d="M258.472 132.11C257.502 131.86 256.46 131.779 255.474 131.626C254.665 131.497 253.857 131.352 253.049 131.182C251.527 130.911 250.086 130.304 248.829 129.408C247.455 128.343 246.752 126.722 246.089 125.165C245.69 124.245 245.286 123.326 244.876 122.406L244.27 121.075C243.988 120.553 243.737 120.014 243.518 119.462C243.518 119.382 243.365 119.462 243.397 119.462C243.535 119.839 243.648 120.224 243.737 120.616C243.874 121.059 243.995 121.503 244.133 121.947C244.383 122.753 244.626 123.56 244.884 124.366C245.278 125.822 245.845 127.224 246.574 128.545C248.045 130.868 250.664 131.811 253.283 132.142C254.035 132.231 254.795 132.287 255.554 132.328C256.506 132.412 257.464 132.412 258.416 132.328C258.438 132.322 258.458 132.31 258.474 132.294C258.491 132.278 258.502 132.257 258.508 132.235C258.514 132.213 258.513 132.19 258.507 132.168C258.501 132.146 258.489 132.126 258.472 132.11Z" fill="#232325"/>
<path d="M216.529 131.666C220.384 133.063 224.109 134.796 227.66 136.844C227.69 136.858 227.713 136.884 227.724 136.915C227.736 136.946 227.734 136.98 227.72 137.01C227.706 137.04 227.681 137.063 227.65 137.074C227.619 137.086 227.585 137.084 227.555 137.07C223.804 135.457 219.98 133.925 216.327 132.118C216.276 132.086 216.239 132.036 216.222 131.979C216.204 131.921 216.208 131.86 216.233 131.805C216.257 131.75 216.301 131.706 216.355 131.681C216.409 131.655 216.471 131.65 216.529 131.666Z" fill="#263238"/>
<path d="M215.398 106.065C215.398 105.935 215.64 105.903 215.64 106.065C215.637 110.24 215.848 114.413 216.27 118.567C216.44 120.495 217.992 131.142 221.346 130.367C221.904 130.238 222.155 129.682 222.276 128.843C222.264 127.74 222.114 126.643 221.831 125.576C221.46 123.342 221.16 121.108 220.975 118.857C220.58 114.664 220.626 110.442 221.112 106.258C221.112 106.23 221.123 106.204 221.143 106.184C221.162 106.164 221.189 106.153 221.217 106.153C221.245 106.153 221.272 106.164 221.291 106.184C221.311 106.204 221.322 106.23 221.322 106.258C221.229 112.075 221.569 117.89 222.341 123.656C222.761 126.423 224.159 130.593 221.257 131.021C218.356 131.448 216.408 124.471 216.028 122.56C215.102 117.112 214.89 111.567 215.398 106.065Z" fill="#232325"/>
<path d="M221.257 130.609C221.552 131.33 221.803 132.068 222.008 132.819C222.224 133.4 222.331 134.015 222.324 134.634C222.319 134.659 222.307 134.683 222.289 134.701C222.271 134.719 222.248 134.732 222.223 134.737C222.197 134.742 222.171 134.74 222.148 134.73C222.124 134.72 222.103 134.704 222.089 134.683C221.728 134.14 221.456 133.544 221.281 132.916C221.022 132.239 220.755 131.553 220.521 130.867C220.487 130.77 220.493 130.663 220.537 130.57C220.582 130.477 220.662 130.405 220.76 130.371C220.857 130.337 220.964 130.343 221.057 130.388C221.151 130.432 221.222 130.512 221.257 130.609Z" fill="#232325"/>
<path d="M258.084 125.625C253.654 125.334 206.876 119.978 206.876 119.978L207.24 100.935H210.473H253.501L257.736 123.302L258.084 125.625Z" fill="#232325"/>
<path d="M225.323 57.2007C219.972 73.9135 210.91 91.1667 208.291 94.5624C201.267 103.693 180.161 112.687 173.719 113.848C170.93 114.348 164.245 96.4015 165.975 93.9333C167.705 91.4651 193.935 81.4633 195.221 80.1324C196.11 79.2048 207.176 64.9763 214.621 56.3941C223.925 45.7228 226.729 52.8289 225.323 57.2007Z" fill="#F7A9A0"/>
<path d="M171.576 90.4486L181.939 111.42C181.939 111.42 203.966 101.894 209.212 95.0946C214.458 88.295 223.964 65.2504 225.379 57.9104C226.793 50.5703 224.352 45.3274 214.499 56.0552C204.645 66.783 196.481 77.4704 194.719 79.2611C192.957 81.0517 171.576 90.4486 171.576 90.4486Z" fill="#EBEBEB"/>
<path d="M172.449 89.3841L184.865 111.114C184.865 111.114 204.265 101.862 209.212 95.7885C214.159 89.7148 222.315 71.0662 224.87 60.9998C227.424 50.9335 225.928 43.7951 214.507 56.1118C203.085 68.4286 196.626 77.3738 194.298 79.3823C193.191 80.2534 172.449 89.3841 172.449 89.3841Z" fill="#323434"/>
<path d="M177.68 91.3926C178.309 91.3926 178.819 90.8835 178.819 90.2553C178.819 89.6272 178.309 89.118 177.68 89.118C177.05 89.118 176.54 89.6272 176.54 90.2553C176.54 90.8835 177.05 91.3926 177.68 91.3926Z" fill="#232325"/>
<path d="M183.056 88.9244C183.685 88.9244 184.195 88.4152 184.195 87.7871C184.195 87.159 183.685 86.6498 183.056 86.6498C182.426 86.6498 181.916 87.159 181.916 87.7871C181.916 88.4152 182.426 88.9244 183.056 88.9244Z" fill="#232325"/>
<path d="M224.871 60.9674C222.317 71.0338 214.169 89.6502 209.214 95.7561C207.096 98.3614 202.359 101.539 197.614 104.33L222.616 49.6912C226.488 48.6426 226.609 54.1275 224.871 60.9674Z" fill="#232325"/>
<path d="M260.527 117.631C260.397 117.777 204.477 117.946 203.944 117.373C203.224 116.567 215.858 56.0716 221.598 48.6428C222.818 47.0296 226.868 46.6021 230.311 47.0296C231.209 47.1307 232.097 47.3116 232.963 47.5701H233.06C233.758 47.7756 234.417 48.0974 235.008 48.5218C244.578 56.1523 252.646 82.8266 254.529 90.8361C257.681 104.056 260.988 117.107 260.527 117.631Z" fill="#EBEBEB"/>
<path d="M234.844 47.8119C234.844 47.8119 230.293 72.5745 229.501 79.0112C228.709 85.4479 229.873 119.446 229.873 119.446L264.987 122.035C264.987 122.035 257.396 99.5311 257.307 98.1034C257.307 98.1034 251.002 71.1468 245.093 59.8867C242.513 55.2238 239.028 51.1193 234.844 47.8119Z" fill="#323434"/>
<path d="M264.989 122.035L249.064 120.858L237.699 50.3042V50.3526L244.829 59.4672C244.91 59.6124 244.99 59.7576 245.063 59.9028C250.972 71.1952 257.277 98.1195 257.277 98.1195C257.398 99.531 264.989 122.035 264.989 122.035Z" fill="#232325"/>
<path d="M221.256 48.3524C221.256 48.3524 217.53 73.4296 217.126 75.5026C216.722 77.5756 211.08 118.47 211.08 118.47L202.293 118.744L206.876 100.047C206.876 100.047 217.069 53.6921 221.256 48.3524Z" fill="#323434"/>
<path d="M226.39 62.1129L223.9 57.2733L220.684 60.774L221.476 64.2585L224.644 64.6698L226.39 62.1129Z" fill="#263238"/>
<path d="M224.642 64.6699L226.162 100.273L219.477 112.05L216.002 98.7972L221.474 64.2585L224.642 64.6699Z" fill="#263238"/>
<path d="M223.243 163.071L223.199 204.885L292.36 204.958L292.404 163.144L223.243 163.071Z" fill="#232325"/>
<path opacity="0.1" d="M223.239 163.076L223.219 182.765L292.38 182.837L292.4 163.148L223.239 163.076Z" fill="black"/>
<path d="M221.592 176.427L294.026 176.503L294.047 156.991L221.612 156.915L221.592 176.427Z" fill="#232325"/>
<path d="M242.589 145.814L242.573 156.937L247.819 156.945L247.827 150.613L267.834 150.637L267.826 156.969H273.072L273.08 145.838L242.589 145.814Z" fill="#263238"/>
<path d="M279.354 181.14L284.074 181.145L284.084 171.82L279.364 171.816L279.354 181.14Z" fill="#263238"/>
<path d="M231.526 181.101L236.246 181.106L236.256 171.782L231.536 171.777L231.526 181.101Z" fill="#263238"/>
<path d="M242.572 55.2487C258.173 69.3723 268.075 89.5454 268.746 93.6187C270.363 103.467 272.408 120.729 272.06 128.303C271.931 131.109 250.615 127.706 250.656 124.705C250.793 115.316 249.54 94.6673 249.484 94.3043C249.104 91.7796 244.464 80.4308 239.784 68.1221C235.103 55.8133 236.009 49.3202 242.572 55.2487Z" fill="#F7A9A0"/>
<path d="M248.409 154.13C249.031 154.412 249.724 154.497 250.396 154.375C251.068 154.252 251.686 153.927 252.168 153.444C252.776 154.43 253.711 155.172 254.811 155.541C256.775 156.106 258.521 153.275 258.521 153.275C259.368 154.167 260.463 154.785 261.666 155.049C263.598 155.396 265.772 152.791 265.772 152.791C267.001 153.177 268.328 153.114 269.515 152.613C271.527 151.67 273.233 145.91 273.653 142.595C274.074 139.28 272.142 129.48 271.964 127.576L250.656 124.721C250.656 124.721 244.545 139.062 244.61 143.031C244.666 146.394 246.065 152.968 248.409 154.13Z" fill="#F7A9A0"/>
<path d="M251.844 153.251C250.93 149.71 251.116 146.088 251.1 142.474C251.1 142.457 251.107 142.441 251.119 142.429C251.131 142.417 251.148 142.41 251.165 142.41C251.182 142.41 251.198 142.417 251.211 142.429C251.223 142.441 251.23 142.457 251.23 142.474C251.23 146.072 251.892 149.629 252.038 153.226C252.041 153.252 252.034 153.278 252.018 153.298C252.002 153.319 251.979 153.332 251.953 153.335C251.927 153.339 251.901 153.331 251.881 153.316C251.86 153.3 251.847 153.276 251.844 153.251Z" fill="#263238"/>
<path d="M258.254 153.17C258.123 152.345 258.102 151.508 258.19 150.677C258.19 149.798 258.287 148.911 258.359 148.032C258.499 146.268 258.68 144.51 258.901 142.757C258.901 142.676 259.03 142.676 259.022 142.757C258.893 144.515 258.788 146.273 258.723 148.032C258.723 148.919 258.674 149.798 258.658 150.677C258.694 151.512 258.639 152.347 258.497 153.17C258.487 153.195 258.471 153.216 258.449 153.231C258.428 153.246 258.402 153.254 258.375 153.254C258.349 153.254 258.323 153.246 258.302 153.231C258.28 153.216 258.263 153.195 258.254 153.17Z" fill="#263238"/>
<path d="M265.772 152.719C265.669 151.97 265.69 151.209 265.837 150.468C265.918 149.661 265.99 148.855 266.063 148.048C266.209 146.435 266.346 144.822 266.427 143.209C266.427 143.128 266.556 143.128 266.556 143.209C266.475 144.822 266.419 146.483 266.33 148.121L266.184 150.541C266.202 151.278 266.089 152.012 265.853 152.71C265.849 152.718 265.844 152.724 265.837 152.728C265.831 152.733 265.823 152.736 265.815 152.736C265.807 152.737 265.799 152.736 265.791 152.733C265.784 152.73 265.777 152.725 265.772 152.719Z" fill="#263238"/>
<path d="M249.613 124.818L273.241 126.093C273.241 126.093 271.495 100.281 269.62 93.1106C267.744 85.94 251.739 62.0404 242.29 53.3775C233.398 45.2228 233.398 52.0063 236.769 61.5645C240.14 71.1227 248.482 94.2237 248.765 95.9095C249.048 97.5953 249.613 124.818 249.613 124.818Z" fill="#323434"/>
<path d="M250.672 120.059C251.577 119.978 252.49 120.059 253.396 120.059C254.301 120.059 255.206 120.099 256.112 120.14C257.858 120.212 259.604 120.317 261.35 120.43L266.58 120.777C268.382 120.898 270.225 120.93 272.012 121.196C272.024 121.201 272.035 121.209 272.042 121.22C272.05 121.231 272.054 121.244 272.054 121.257C272.054 121.27 272.05 121.283 272.042 121.294C272.035 121.304 272.024 121.313 272.012 121.317C270.209 121.39 268.374 121.229 266.571 121.164L261.236 120.946C259.458 120.866 257.68 120.777 255.901 120.664C255.028 120.616 254.155 120.551 253.291 120.454C252.426 120.357 251.52 120.349 250.663 120.18C250.583 120.164 250.607 120.067 250.672 120.059Z" fill="#232325"/>
<path d="M224.741 56.6281C225.662 56.5877 231.781 51.7885 233.632 48.0942C233.762 47.8361 233.285 45.2066 232.864 41.9883C232.614 40.0363 232.379 37.8504 232.315 35.842C232.315 35.4306 230.924 36.2372 230.924 36.2372L228.338 36.947L219.802 39.3184C220.606 41.8054 221.1 44.3817 221.273 46.9892C221.282 47.2593 221.263 47.5296 221.216 47.7958C221.22 47.8414 221.22 47.8873 221.216 47.9329C221.03 49.5219 223.253 56.6845 224.741 56.6281Z" fill="#F7A9A0"/>
<path d="M221.25 47.8119C221.253 47.8575 221.253 47.9034 221.25 47.949C221.683 47.99 222.119 47.99 222.551 47.949C231.039 47.4812 231.742 36.6566 231.742 36.6566L228.388 36.9147L219.852 39.2861C220.656 41.7731 221.15 44.3494 221.323 46.9569C221.33 47.2437 221.306 47.5305 221.25 47.8119Z" fill="#263238"/>
<path d="M231.999 18.8228C234.036 23.0252 233.697 36.1405 230.989 39.4718C227.077 44.3114 219.672 45.852 215.307 40.9236C211.08 36.1566 211.831 19.0728 214.944 15.919C219.527 11.3375 228.992 12.612 231.999 18.8228Z" fill="#F7A9A0"/>
<path d="M220.732 28.3888C220.732 28.3888 220.797 28.3888 220.797 28.4695C220.748 29.3487 220.845 30.373 221.605 30.6795C221.605 30.6795 221.605 30.736 221.605 30.7279C220.66 30.5747 220.546 29.2196 220.732 28.3888Z" fill="#263238"/>
<path d="M221.54 27.4856C222.963 27.4049 223.019 30.2603 221.694 30.3329C220.368 30.4055 220.344 27.5501 221.54 27.4856Z" fill="#263238"/>
<path d="M215.607 28.6307C215.607 28.6307 215.542 28.6711 215.542 28.7114C215.583 29.5906 215.486 30.615 214.686 30.9215V30.9699C215.672 30.8086 215.793 29.4373 215.607 28.6307Z" fill="#263238"/>
<path d="M214.797 27.7115C213.374 27.6309 213.309 30.4862 214.635 30.5588C215.961 30.6314 215.977 27.8244 214.797 27.7115Z" fill="#263238"/>
<path d="M222.648 26.1627C222.252 26.0659 221.904 25.9207 221.532 25.7917C221.119 25.7185 220.743 25.5081 220.465 25.1948C220.396 25.0815 220.367 24.9481 220.383 24.8164C220.399 24.6846 220.46 24.5621 220.554 24.4688C220.766 24.3071 221.016 24.2047 221.281 24.172C221.545 24.1394 221.813 24.1778 222.058 24.2833C222.586 24.4229 223.044 24.7535 223.343 25.2109C223.405 25.319 223.434 25.4426 223.427 25.5669C223.42 25.6912 223.378 25.8109 223.304 25.9115C223.231 26.0121 223.13 26.0893 223.013 26.1339C222.897 26.1785 222.77 26.1885 222.648 26.1627Z" fill="#263238"/>
<path d="M213.666 26.2999C214.049 26.2159 214.426 26.1109 214.797 25.9853C215.21 25.9279 215.593 25.7382 215.889 25.4449C215.964 25.3347 216 25.2026 215.991 25.0695C215.982 24.9365 215.929 24.8103 215.84 24.7109C215.637 24.5379 215.391 24.4226 215.128 24.3772C214.865 24.3318 214.594 24.3579 214.345 24.4528C213.811 24.5655 213.338 24.8733 213.019 25.3158C212.952 25.4207 212.917 25.5425 212.918 25.6668C212.919 25.7911 212.956 25.9125 213.024 26.0164C213.092 26.1203 213.189 26.2024 213.303 26.2527C213.417 26.303 213.543 26.3194 213.666 26.2999Z" fill="#263238"/>
<path d="M220.715 33.9464C220.497 34.2998 220.207 34.6042 219.865 34.8402C219.523 35.0762 219.135 35.2388 218.727 35.3176C218.371 35.3945 218.006 35.4189 217.644 35.3902C217.574 35.3986 217.503 35.3986 217.434 35.3902H217.24C217.193 35.3817 217.15 35.3581 217.118 35.3232C217.086 35.2883 217.066 35.2438 217.062 35.1966C217.058 35.1672 217.058 35.1374 217.062 35.1079V35.0273C217.062 34.3497 217.062 33.3173 217.062 33.3173C216.811 33.4463 215.55 34.0351 215.567 33.6802C215.593 30.6131 215.931 27.5565 216.577 24.5576C216.577 24.5362 216.585 24.5157 216.601 24.5006C216.616 24.4854 216.636 24.4769 216.658 24.4769C216.679 24.4769 216.7 24.4854 216.715 24.5006C216.73 24.5157 216.739 24.5362 216.739 24.5576C216.739 27.3968 216.221 30.2038 216.173 33.0592C216.62 32.8407 217.097 32.686 217.587 32.5994C217.684 32.5994 217.458 34.5998 217.498 34.9063C218.057 34.9523 218.619 34.8853 219.151 34.7092C219.683 34.5332 220.174 34.2518 220.594 33.8819C220.699 33.8174 220.764 33.8738 220.715 33.9464Z" fill="#263238"/>
<path d="M218.039 35.0354C218.418 35.5156 218.917 35.8883 219.486 36.1163C219.799 36.2329 220.141 36.2498 220.464 36.1647C221.175 35.963 221.175 35.3581 221.038 34.7612C220.958 34.4806 220.847 34.21 220.706 33.9546C219.955 34.5885 219.021 34.9671 218.039 35.0354Z" fill="#263238"/>
<path d="M219.486 36.1161C219.799 36.2327 220.141 36.2496 220.464 36.1645C221.176 35.9628 221.176 35.3579 221.038 34.761C220.665 34.7828 220.311 34.9279 220.03 35.1732C219.749 35.4186 219.557 35.7503 219.486 36.1161Z" fill="#FF9ABB"/>
<path d="M213.133 20.3068C213.594 19.1775 214.135 18.0402 214.806 17.7982C215.477 17.5563 215.954 19.2017 217.498 19.2743C219.575 19.3792 220.545 17.4595 223.447 17.2014C227.61 16.8303 229.51 20.2745 229.728 26.1788C229.914 31.4459 233.123 31.8815 233.123 31.8815C233.123 31.8815 234.837 20.218 231.506 16.427C228.176 12.636 220.578 11.0793 215.582 14.8138C213.731 16.2254 213.133 20.3068 213.133 20.3068Z" fill="#263238"/>
<path d="M230.415 29.8569C230.415 29.8569 232.751 25.3319 234.771 26.1062C236.792 26.8806 235.426 33.172 233.325 34.2932C233.065 34.4545 232.776 34.5618 232.474 34.6085C232.172 34.6553 231.864 34.6405 231.568 34.5651C231.272 34.4898 230.994 34.3554 230.751 34.17C230.509 33.9846 230.306 33.7522 230.156 33.4866L230.415 29.8569Z" fill="#F7A9A0"/>
<path d="M234.336 27.905C234.336 27.905 234.384 27.9454 234.336 27.9615C232.873 28.7681 232.25 30.3329 231.911 31.8977C231.979 31.7299 232.083 31.579 232.216 31.4556C232.348 31.3321 232.506 31.2391 232.679 31.183C232.851 31.1269 233.034 31.1091 233.214 31.1309C233.394 31.1526 233.567 31.2134 233.721 31.3089C233.762 31.3089 233.721 31.3976 233.721 31.3976C233.437 31.3473 233.145 31.3862 232.884 31.509C232.624 31.6319 232.408 31.8325 232.266 32.0832C232.03 32.5023 231.84 32.9458 231.701 33.406C231.652 33.5593 231.385 33.519 231.418 33.3496C231.078 31.3492 232.242 28.389 234.336 27.905Z" fill="#263238"/>
<path d="M221.208 48.1184L224.256 55.5875L233.503 46.1503L236.138 49.167C236.138 49.167 227.101 64.1213 227.045 63.468L223.957 57.0636L219.535 61.5321L219.867 50.3285L221.208 48.1184Z" fill="#EBEBEB"/>
<path d="M219.381 55.9908C219.502 54.1437 219.567 52.2724 219.769 50.4334C219.769 50.3688 219.882 50.3446 219.898 50.4334C220.27 52.216 219.785 59.306 219.793 60.9756C219.979 60.7821 223.891 57.0475 223.932 57.104C224.603 58.1203 226.866 62.7501 227.02 63.2099C228.45 60.8304 233.923 52.1837 235.62 49.9333C235.631 49.9243 235.644 49.9188 235.657 49.9177C235.671 49.9166 235.685 49.9199 235.697 49.927C235.708 49.9342 235.717 49.945 235.723 49.9577C235.728 49.9704 235.729 49.9845 235.725 49.9978C234.489 52.466 227.246 64.1214 227.133 64.1214C225.941 61.9191 224.861 59.6577 223.899 57.3459C223.237 58.1525 219.284 62.3872 219.268 62.1129C219.199 60.0717 219.237 58.0282 219.381 55.9908Z" fill="#232325"/>
<path d="M116.796 55.8135C126.965 75.8414 137.295 124.02 138.257 130.464C138.912 134.844 115.834 138.805 115.834 135.772C115.834 131.884 111.178 86.4079 111.623 68.4368C111.865 58.5237 114.694 51.6757 116.796 55.8135Z" fill="#FFC4C0"/>
<path d="M115.746 133.852C115.374 136.49 116.255 145.628 117.985 152.404C118.794 155.711 122.253 164.947 124.848 164.503C127.443 164.059 126.675 161.277 126.675 161.277C126.675 161.277 128.712 164.955 131.274 164.269C133.837 163.583 132.519 159.276 132.519 159.276C132.519 159.276 134.879 162.914 137.369 162.043C139.859 161.172 137.814 157.066 137.814 157.066C137.814 157.066 139.826 160.494 141.589 158.905C143.715 156.993 139.301 151.105 138.557 147.403C138.388 146.596 136.326 130.126 136.326 130.126L115.746 133.852Z" fill="#FFC4C0"/>
<path d="M137.845 157.01C134.612 152.67 133.95 150.21 133.545 144.911C133.54 144.892 133.528 144.877 133.513 144.866C133.498 144.854 133.479 144.848 133.461 144.848C133.442 144.848 133.423 144.854 133.408 144.866C133.393 144.877 133.381 144.892 133.376 144.911C133.303 150.145 133.691 153.348 137.643 157.195C137.837 157.364 137.999 157.211 137.845 157.01Z" fill="#263238"/>
<path d="M132.583 159.51C129.616 154.711 128.873 152.049 128.032 146.524C128.032 146.443 127.887 146.451 127.895 146.524C128.259 152.017 128.703 155.203 132.316 159.615C132.478 159.825 132.72 159.728 132.583 159.51Z" fill="#263238"/>
<path d="M126.439 160.913C123.909 156.074 122.972 153.178 122.851 147.709C122.844 147.687 122.831 147.668 122.813 147.654C122.795 147.641 122.772 147.633 122.75 147.633C122.727 147.633 122.704 147.641 122.686 147.654C122.668 147.668 122.655 147.687 122.648 147.709C122.228 153.299 123.376 156.904 126.286 160.986C126.488 161.22 126.601 161.188 126.439 160.913Z" fill="#263238"/>
<path d="M138.112 129.319C138.112 129.319 141.83 134.965 142.913 137.845C143.996 140.724 144.118 152.799 141.499 152.976C138.12 153.202 136.649 146.225 136.406 142.716C136.406 142.716 128.582 143.241 126.464 138.458C124.346 133.674 138.112 129.319 138.112 129.319Z" fill="#FFC4C0"/>
<path d="M140.553 152.726C137.32 150.718 137.271 146.088 136.762 142.7C136.757 142.65 136.739 142.601 136.711 142.559C136.683 142.517 136.645 142.482 136.601 142.457C136.557 142.433 136.507 142.419 136.456 142.418C136.405 142.417 136.355 142.428 136.309 142.45C133.019 142.45 128.371 141.498 126.383 138.659C126.379 138.648 126.372 138.638 126.364 138.63C126.355 138.622 126.345 138.616 126.334 138.612C126.323 138.608 126.311 138.607 126.3 138.608C126.288 138.609 126.277 138.612 126.266 138.618C126.256 138.624 126.248 138.632 126.241 138.642C126.234 138.652 126.23 138.663 126.228 138.674C126.226 138.686 126.226 138.698 126.229 138.709C126.232 138.72 126.238 138.731 126.245 138.74C127.959 142.079 132.453 143.386 136.059 143.152C136.527 146.628 136.778 151.274 140.529 152.759C140.553 152.767 140.569 152.742 140.553 152.726Z" fill="#263238"/>
<path d="M140.473 127.964L114.258 131.997C114.258 131.997 110.079 83.4314 109.926 67.13C109.772 50.8286 115.641 46.836 121.938 63.5084C128.235 80.1808 140.473 127.964 140.473 127.964Z" fill="#D80121"/>
<path d="M114.128 127.908C124.855 125.488 136.486 124.592 138.507 124.294C138.604 124.294 138.612 124.431 138.507 124.439C136.519 124.633 123.327 127.109 114.128 128.069C114.055 128.077 114.047 127.924 114.128 127.908Z" fill="#263238"/>
<path d="M172.232 305.795C170.413 306.384 117.104 305.585 115.147 304.303C114.913 304.158 114.881 299.35 114.945 292.76L112.351 253.616L146.082 253.713L148.75 287.59C148.75 287.59 156.316 291.074 162.556 294.123C165.287 295.362 167.94 296.762 170.502 298.318C172.515 299.995 174.051 305.214 172.232 305.795Z" fill="#FFC4C0"/>
<path d="M172.23 305.795C170.411 306.384 117.102 305.585 115.145 304.303C114.911 304.158 114.879 299.35 114.943 292.76C128.111 295.688 163.225 300.431 164.252 297.681C164.664 296.576 163.823 295.325 162.57 294.172C165.301 295.41 167.954 296.811 170.516 298.366C172.513 299.996 174.049 305.214 172.23 305.795Z" fill="#252526"/>
<path d="M98.1064 111.146C98.1064 111.146 107.661 212.31 107.871 213.536C107.871 213.697 107.976 215.569 108.065 218.609C108.599 235.298 109.908 287.34 109.908 287.34H149.985C149.985 287.34 147.374 225.7 145.871 211.326C143.955 192.976 132.178 111.146 132.178 111.146H98.1064Z" fill="#323434"/>
<path d="M112.648 216.956C111.414 195.952 109.558 174.98 107.079 154.041C105.672 142.265 103.975 130.529 102.294 118.785C102.294 118.68 102.116 118.688 102.132 118.785C105.236 139.684 107.426 160.728 109.318 181.788C111.209 202.849 112.551 223.86 113.36 244.945C113.853 256.883 114.225 268.836 114.604 280.782C114.614 280.834 114.642 280.88 114.683 280.914C114.723 280.947 114.774 280.966 114.827 280.966C114.879 280.966 114.93 280.947 114.971 280.914C115.012 280.88 115.039 280.834 115.049 280.782C114.516 259.52 113.901 238.226 112.648 216.956Z" fill="#232325"/>
<path d="M147.456 280.895C146.405 280.758 145.265 280.799 144.223 280.766C143.026 280.766 141.798 280.71 140.617 280.67C138.298 280.581 135.97 280.516 133.65 280.484C128.969 280.403 124.281 280.436 119.609 280.581L115.745 280.718C114.371 280.766 112.997 280.895 111.623 280.887C111.526 280.887 111.526 281.008 111.623 281.008C113.975 281.008 116.359 281.21 118.72 281.299C121.08 281.387 123.36 281.42 125.679 281.452C130.36 281.516 135.056 281.452 139.728 281.307C141.014 281.258 142.299 281.242 143.584 281.202L145.653 281.097C146.268 281.097 146.874 281.097 147.488 281.041C147.569 281.041 147.561 280.912 147.456 280.895Z" fill="#232325"/>
<path d="M127.061 111.146L108.752 242.912C108.494 233.088 108.235 224.006 108.065 218.609C107.976 215.569 107.903 213.697 107.871 213.536C107.645 212.31 98.1064 111.146 98.1064 111.146H127.061Z" fill="#232325"/>
<path d="M105.091 312.812C103.184 312.659 54.2796 291.462 52.9701 289.526C52.8085 289.308 54.5868 284.856 57.2301 278.798L68.0132 240.888L99.2148 253.382L90.4121 287.042C90.4121 287.042 96.0704 293.164 100.646 298.334C102.689 300.528 104.6 302.842 106.369 305.263C107.589 307.562 106.991 312.974 105.091 312.812Z" fill="#FFC4C0"/>
<path d="M105.091 312.812C103.184 312.659 54.2796 291.462 52.9701 289.526C52.8085 289.308 54.5868 284.856 57.2301 278.798C68.2638 286.557 98.843 304.399 100.88 302.254C101.688 301.399 101.389 299.915 100.678 298.366C102.721 300.561 104.632 302.874 106.401 305.295C107.589 307.561 106.991 312.974 105.091 312.812Z" fill="#252526"/>
<path d="M53.7217 274.894L92.8207 286.993C92.8207 286.993 111.914 220.166 113.377 204.47C114.824 188.911 116.222 157.123 116.844 134.062C116.844 134.062 123.376 130.206 125.033 128.101C126.69 125.996 128.177 118.422 131.443 111.162H83.6057C72.1759 133.32 80.7766 143.176 80.7766 148.008C80.7766 171.335 77.2441 202.3 76.1206 206.89C73.7764 216.456 53.7217 274.894 53.7217 274.894Z" fill="#323434"/>
<path d="M92.7316 278.459C91.7535 278.056 90.6461 277.806 89.6276 277.491C88.4717 277.145 87.3077 276.822 86.1598 276.467C83.945 275.781 81.714 275.128 79.483 274.499C74.9833 273.219 70.4512 272.041 65.8869 270.966L62.12 270.103C60.7863 269.796 59.4202 269.563 58.0784 269.208C57.9733 269.208 57.949 269.296 58.0784 269.329C60.3579 269.926 62.605 270.74 64.8603 271.434C67.1155 272.128 69.3142 272.749 71.5452 273.386C76.0476 274.652 80.5904 275.806 85.1494 276.862C86.4104 277.145 87.6552 277.459 88.9082 277.758L90.9209 278.201C91.5191 278.338 92.1011 278.532 92.7073 278.621C92.7288 278.624 92.7506 278.618 92.768 278.606C92.7855 278.593 92.7971 278.573 92.8003 278.552C92.8035 278.531 92.7981 278.509 92.7852 278.492C92.7723 278.474 92.753 278.463 92.7316 278.459Z" fill="#232325"/>
<path d="M126.148 127.577C123.866 128.623 121.698 129.905 119.682 131.4C117.54 132.868 115.567 134.554 113.506 136.127C113.425 136.191 113.506 136.32 113.587 136.264C115.761 134.876 118.041 133.658 120.191 132.231C122.35 130.924 124.385 129.423 126.27 127.746C126.326 127.681 126.254 127.536 126.148 127.577Z" fill="#232325"/>
<path d="M126.446 114.13C126.171 115.614 125.808 117.091 125.484 118.567C125.161 120.043 124.959 121.366 124.595 122.737C124.295 124.063 123.618 125.275 122.647 126.229C122.106 126.738 121.5 127.181 120.918 127.649C120.61 127.899 120.271 128.133 119.948 128.391C119.988 128.189 120.02 127.996 120.053 127.786C120.158 127.23 120.255 126.665 120.344 126.1C120.554 124.85 120.756 123.592 120.95 122.342C121.33 119.873 121.677 117.381 122.195 114.937C122.2 114.916 122.197 114.893 122.185 114.874C122.174 114.855 122.155 114.841 122.134 114.836C122.113 114.831 122.09 114.834 122.071 114.845C122.052 114.857 122.038 114.875 122.033 114.897C121.419 117.316 120.74 119.736 120.206 122.156C119.94 123.35 119.002 129.254 118.962 129.674C118.921 130.093 118.881 130.537 118.865 130.972C118.812 131.414 118.812 131.861 118.865 132.303C118.865 132.408 119.026 132.392 119.067 132.303C119.248 131.894 119.375 131.463 119.447 131.021C119.552 130.601 119.649 130.174 119.721 129.746C119.721 129.593 119.77 129.432 119.794 129.27C120.376 128.915 120.918 128.464 121.467 128.06C122.017 127.657 122.647 127.254 123.205 126.754C124.233 125.888 124.974 124.732 125.331 123.439C125.69 122.045 125.925 120.623 126.034 119.188C126.22 117.51 126.357 115.824 126.592 114.155C126.616 114.13 126.462 114.05 126.446 114.13Z" fill="#232325"/>
<path d="M125.445 49.8122C124.677 59.2898 123.723 69.0335 121.509 78.2933C119.779 85.5043 115.85 91.1101 108.009 91.8603C100.734 92.554 90.6706 91.0537 85.3357 85.5607C82.846 83.0038 82.3044 79.7935 82.9592 76.3736C83.8726 71.6227 91.285 45.9083 93.5402 37.8745C94.9144 32.9865 96.2724 28.0259 98.5034 23.4283C103.176 13.7491 108.203 14.5557 108.899 14.4347C109.553 14.1282 113.627 12.9506 118.865 15.4349C120.243 16.0769 121.47 17.0023 122.465 18.1505C123.459 19.2987 124.2 20.6437 124.637 22.0974C127.417 30.7442 126.189 40.9396 125.445 49.8122Z" fill="#0C093A"/>
<path d="M107.169 15.6206C100.759 17.6048 98.4151 23.977 96.1518 29.6554C92.9993 37.5682 89.9762 45.5374 87.341 53.6437C86.08 57.5396 84.916 61.4677 83.8409 65.4201C82.8305 69.2111 81.5129 73.2199 81.2381 77.148C80.7854 83.6008 86.2821 87.3757 91.8757 89.0777C91.9315 89.0958 91.9922 89.0912 92.0445 89.0647C92.0968 89.0382 92.1364 88.9921 92.1546 88.9365C92.1728 88.8809 92.1682 88.8203 92.1416 88.7681C92.1151 88.716 92.0689 88.6764 92.0131 88.6582C88.8445 87.5693 85.6516 86.2384 83.558 83.4718C80.8662 79.955 81.7877 75.9704 82.7012 72.0019C84.2693 65.2426 86.2174 58.5882 88.3595 52.0063C90.5016 45.4245 92.9751 38.9071 95.4971 32.4463C97.9221 26.2919 100.161 18.0646 107.153 15.7254C107.258 15.7254 107.234 15.5964 107.169 15.6206Z" fill="#263238"/>
<path d="M126.424 29.3488C125.955 24.2753 124.047 19.1292 119.06 16.9917C125.478 20.0406 126.108 27.5824 126.157 33.8093C126.211 40.375 126.025 46.93 125.599 53.4742C125.195 59.7738 124.645 66.1056 123.667 72.3406C122.609 79.0677 120.515 85.2462 115.763 90.2391C115.752 90.2486 115.743 90.2601 115.737 90.273C115.731 90.2859 115.727 90.2998 115.727 90.314C115.726 90.3283 115.728 90.3425 115.733 90.3559C115.738 90.3694 115.745 90.3818 115.754 90.3923C115.764 90.4029 115.776 90.4115 115.788 90.4177C115.801 90.4238 115.815 90.4274 115.83 90.4281C115.844 90.4289 115.858 90.4268 115.872 90.422C115.885 90.4173 115.897 90.4099 115.908 90.4004C120.459 86.44 122.617 80.4228 123.724 74.6636C125.06 67.0181 125.889 59.2929 126.205 51.5384C126.626 44.2387 127.102 36.6969 126.424 29.3488Z" fill="#263238"/>
<path d="M106.788 51.103C107.096 51.9096 111.808 56.8298 115.623 56.1603C116.859 55.9345 115.946 49.1187 115.946 49.1187L115.994 48.6025L116.657 41.3431L107.661 37.1004L106.376 36.5519C106.376 36.5519 106.32 38.5522 106.287 41.0366C106.287 41.1576 106.287 41.2705 106.287 41.3915C106.279 41.5285 106.279 41.6658 106.287 41.8029C106.287 42.1739 106.287 42.553 106.287 42.9321C106.287 43.3112 106.287 43.4967 106.287 43.7952C106.287 44.0936 106.287 44.4001 106.287 44.6985C106.309 46.8422 106.476 48.982 106.788 51.103Z" fill="#FFC4C0"/>
<path d="M106.287 41.0366C107.257 42.9243 108.627 44.5788 110.302 45.8853C111.977 47.1917 113.916 48.1189 115.986 48.6025L116.649 41.3431L107.661 37.1004L106.376 36.5519C106.376 36.5519 106.319 38.5522 106.287 41.0366Z" fill="#263238"/>
<path d="M125.906 30.6555C126.924 43.3998 119.391 45.4486 116.634 45.6664C114.128 45.86 105.584 46.2149 103.256 33.6319C100.928 21.0489 106.546 16.532 112.245 15.806C117.944 15.0801 124.895 17.9032 125.906 30.6555Z" fill="#FFC4C0"/>
<path d="M123.756 27.9453C123.465 27.9025 123.176 27.8433 122.891 27.7679C122.575 27.7489 122.274 27.6271 122.034 27.4211C121.973 27.341 121.94 27.2433 121.94 27.1428C121.94 27.0423 121.973 26.9445 122.034 26.8645C122.179 26.7257 122.357 26.6273 122.551 26.5791C122.746 26.531 122.949 26.5348 123.142 26.5903C123.554 26.642 123.93 26.8499 124.192 27.171C124.25 27.2462 124.284 27.3364 124.29 27.4307C124.297 27.5249 124.276 27.619 124.229 27.7013C124.183 27.7836 124.113 27.8506 124.029 27.8939C123.945 27.9373 123.85 27.9552 123.756 27.9453Z" fill="#263238"/>
<path d="M115.252 28.1228C115.551 28.0825 115.818 28.0018 116.117 27.9373C116.417 27.9037 116.7 27.7767 116.925 27.5744C116.987 27.4949 117.021 27.3969 117.021 27.2961C117.021 27.1952 116.987 27.0972 116.925 27.0178C116.779 26.8797 116.598 26.7829 116.402 26.7376C116.206 26.6922 116.002 26.6998 115.809 26.7597C115.403 26.8248 115.034 27.0373 114.775 27.3566C114.716 27.4345 114.683 27.5284 114.678 27.6258C114.674 27.7232 114.699 27.8196 114.751 27.9024C114.802 27.9853 114.878 28.0506 114.967 28.0899C115.056 28.1293 115.156 28.1407 115.252 28.1228Z" fill="#263238"/>
<path d="M117.248 31.3411C117.248 31.3411 117.183 31.3411 117.183 31.4137C117.24 32.2848 117.183 33.293 116.375 33.6076C116.375 33.6076 116.375 33.6641 116.375 33.656C117.361 33.4705 117.442 32.1557 117.248 31.3411Z" fill="#263238"/>
<path d="M116.442 30.454C115.036 30.3975 115.019 33.2045 116.321 33.2609C117.622 33.3174 117.622 30.5024 116.442 30.454Z" fill="#263238"/>
<path d="M115.89 30.5991C115.639 30.7604 115.397 31.0347 115.081 31.0669C114.766 31.0992 114.483 30.8007 114.273 30.5184H114.225C114.225 31.0508 114.411 31.6073 115.033 31.688C115.655 31.7687 115.946 31.2928 116.084 30.7523C116.076 30.6878 115.987 30.5346 115.89 30.5991Z" fill="#263238"/>
<path d="M122.099 31.1476C122.099 31.1476 122.164 31.1476 122.164 31.2202C122.123 32.0913 122.22 33.0996 123.012 33.398C123.012 33.398 123.012 33.4545 123.012 33.4464C122.042 33.3012 121.921 31.9622 122.099 31.1476Z" fill="#263238"/>
<path d="M122.891 30.244C124.29 30.1634 124.362 32.9703 123.061 33.051C121.76 33.1316 121.711 30.3166 122.891 30.244Z" fill="#263238"/>
<path d="M123.481 30.4216C123.707 30.5587 123.934 30.8249 124.2 30.841C124.467 30.8572 124.726 30.5426 124.92 30.2441H124.96C124.96 30.7765 124.823 31.3411 124.314 31.454C123.804 31.567 123.505 31.1072 123.344 30.5829C123.319 30.5103 123.392 30.3571 123.481 30.4216Z" fill="#263238"/>
<path d="M120.821 35.0837C120.821 35.0837 121.007 36.3823 121.007 36.9953C121.007 37.0598 120.862 37.084 120.651 37.1002C120.124 37.1997 119.58 37.1522 119.078 36.963C118.576 36.7737 118.136 36.45 117.806 36.0274C117.795 36.0146 117.788 35.9976 117.789 35.9802C117.79 35.9628 117.798 35.9464 117.81 35.9346C117.823 35.9229 117.84 35.9167 117.858 35.9174C117.875 35.9182 117.892 35.9258 117.903 35.9387C118.687 36.4712 119.623 36.7345 120.571 36.6888C120.611 36.5194 120.175 34.4707 120.272 34.4626C120.749 34.5008 121.22 34.6039 121.67 34.7691C121.363 32.0509 120.619 29.4052 120.344 26.7031C120.344 26.6817 120.353 26.6612 120.368 26.6461C120.383 26.6309 120.404 26.6224 120.425 26.6224C120.447 26.6224 120.467 26.6309 120.482 26.6461C120.497 26.6612 120.506 26.6817 120.506 26.7031C121.392 29.5159 121.996 32.4097 122.308 35.3418C122.333 35.616 121.064 35.1643 120.821 35.0837Z" fill="#263238"/>
<path d="M121.808 31.9944C121.614 29.9134 122.576 28.1228 123.95 27.9614C125.324 27.8001 126.609 29.4133 126.803 31.4944C126.997 33.5754 125.995 35.366 124.661 35.5274C123.328 35.6887 122.002 34.0755 121.808 31.9944ZM122.317 31.9461C122.487 33.7448 123.514 35.1241 124.613 35.0273C125.712 34.9305 126.472 33.3737 126.302 31.575C126.132 29.7763 125.098 28.397 123.998 28.4938C122.899 28.5906 122.148 30.1473 122.317 31.9461Z" fill="#263238"/>
<path d="M112.31 32.8899C112.292 32.2005 112.477 31.521 112.841 30.935C113.206 30.3489 113.734 29.8818 114.36 29.5909C114.987 29.3 115.685 29.1979 116.368 29.2974C117.052 29.3968 117.692 29.6933 118.209 30.1505C118.727 30.6078 119.099 31.2058 119.281 31.8712C119.462 32.5366 119.445 33.2404 119.231 33.8962C119.018 34.552 118.617 35.1313 118.078 35.563C117.539 35.9946 116.885 36.2598 116.197 36.326C115.226 36.3812 114.272 36.051 113.544 35.4073C112.816 34.7636 112.372 33.8587 112.31 32.8899ZM112.819 32.8415C112.922 33.4214 113.192 33.9589 113.596 34.3884C114 34.8178 114.52 35.1205 115.094 35.2596C115.667 35.3988 116.269 35.3682 116.825 35.1718C117.382 34.9753 117.869 34.6214 118.227 34.1533C118.585 33.6852 118.799 33.1231 118.842 32.5357C118.886 31.9484 118.757 31.3611 118.471 30.8456C118.186 30.3301 117.756 29.9087 117.235 29.6329C116.713 29.3571 116.122 29.2388 115.535 29.2924C114.703 29.4047 113.951 29.8414 113.442 30.5067C112.933 31.172 112.709 32.0116 112.819 32.8415Z" fill="#263238"/>
<path d="M119.163 31.8977C120.99 31.0911 121.903 31.5992 121.911 31.6073L122.186 31.1798C122.146 31.1798 121.063 30.47 118.953 31.4379L119.163 31.8977Z" fill="#263238"/>
<path d="M112.512 32.5349L112.561 32.0268C112.221 32.0268 104.381 31.3008 103.54 31.3331C102.699 31.3653 100.703 32.7124 100.484 32.8656L100.775 33.285C101.606 32.6584 102.534 32.1733 103.524 31.8493H103.621C104.235 31.8574 109.724 32.2849 112.512 32.5349Z" fill="#263238"/>
<path d="M103.62 32.7203C105.002 32.6396 108.607 28.8244 108.721 22.1457C108.721 22.1457 108.203 28.1388 107.759 29.018C107.314 29.8972 109.771 26.8724 109.933 21.4924C111.636 22.7046 113.503 23.6687 115.478 24.3558C118.025 25.0656 119.585 25.0414 119.771 24.8559C119.956 24.6704 116.198 23.4928 115.179 22.3313C115.179 22.3313 121.969 25.4689 125.089 25.7109C125.453 25.7109 125.898 18.3144 121.048 15.1686C116.198 12.0229 108.559 15.4267 106.498 17.411C106.498 17.411 104.073 17.7498 101.462 21.323C98.8509 24.8962 102.133 32.809 103.62 32.7203Z" fill="#0C093A"/>
<path d="M105.366 34.4545C105.366 34.4545 102.594 30.4214 100.775 31.4216C98.9568 32.4218 101.01 38.2051 103.135 39.0117C103.401 39.1339 103.689 39.2014 103.981 39.2101C104.273 39.2188 104.564 39.1685 104.837 39.0624C105.109 38.9562 105.357 38.7962 105.566 38.5921C105.775 38.388 105.941 38.1439 106.053 37.8744L105.366 34.4545Z" fill="#FFC4C0"/>
<path d="M101.406 33.0673V33.1237C102.893 33.7448 103.669 35.1322 104.211 36.5679C104.126 36.4172 104.009 36.2868 103.869 36.1859C103.728 36.0849 103.567 36.0159 103.397 35.9837C103.227 35.9514 103.051 35.9566 102.884 35.999C102.716 36.0414 102.559 36.12 102.425 36.2291C102.425 36.2291 102.425 36.3179 102.465 36.3098C102.728 36.2274 103.011 36.2289 103.273 36.3142C103.535 36.3995 103.764 36.5643 103.928 36.7857C104.201 37.1551 104.434 37.5526 104.623 37.9714C104.688 38.1085 104.93 38.0359 104.882 37.8827C104.914 35.9468 103.451 33.277 101.406 33.0673Z" fill="#263238"/>
<path d="M104.92 38.7215C104.922 38.9069 104.868 39.0886 104.766 39.2435C104.664 39.3985 104.518 39.5196 104.347 39.5917C104.176 39.6638 103.987 39.6834 103.805 39.6483C103.622 39.6131 103.454 39.5246 103.322 39.3941C103.19 39.2635 103.1 39.0968 103.064 38.9151C103.027 38.7334 103.045 38.5449 103.116 38.3734C103.186 38.202 103.306 38.0554 103.461 37.9522C103.615 37.849 103.797 37.794 103.982 37.7939C104.23 37.7939 104.467 37.8914 104.643 38.0651C104.818 38.2389 104.918 38.4748 104.92 38.7215Z" fill="white"/>
<path d="M133.528 115.461C133.528 115.461 90.4762 116.099 79.79 115.349C79.79 115.349 88.5039 66.0653 99.9983 53.6114C100.426 53.1435 100.88 52.6992 101.356 52.2805C102.06 51.6917 101.963 46.9892 102.294 46.6343C102.625 46.2794 116.593 48.1104 116.771 48.4491C116.949 48.7879 117.668 53.2242 117.668 53.2242C120.837 57.2572 131.03 71.1953 132.218 76.9463C133.407 82.6974 129.664 89.0453 129.664 89.0453L133.528 115.461Z" fill="#D80121"/>
<path d="M96.7102 62.4034C94.164 74.6476 95.6756 101.12 101.56 105.96C111.26 113.881 134.573 116.196 141.08 116.962C143.884 117.293 149.47 98.9746 147.546 96.6113C145.622 94.2479 116.967 90.5698 115.601 89.3519C114.655 88.4807 110.201 72.4859 106.362 63.4681C101.196 51.2642 97.6398 57.8864 96.7102 62.4034Z" fill="#FFC4C0"/>
<path d="M142.694 95.1352C142.694 95.1352 151.295 95.0465 156.921 95.2562C160.066 95.3691 165.425 96.0628 167.696 97.192C171.083 98.894 184.178 108.17 181.988 111.388C180.007 114.3 176.111 110.469 176.111 110.469C176.111 110.469 180.767 114.252 177.914 116.542C175.06 118.833 170.445 113.364 170.445 113.364C170.445 113.364 175.666 117.042 172.385 119.188C169.539 121.059 163.566 115.316 163.566 115.316C163.566 115.316 169.475 118.543 166.742 120.777C163.727 123.197 153.688 115.712 153.688 115.712C146.494 117.325 141.959 117.325 136.672 116.462C135.702 116.3 142.694 95.1352 142.694 95.1352Z" fill="#FFC4C0"/>
<path d="M171.883 114.639L170.711 113.405C169.986 112.587 169.214 111.811 168.399 111.082C167.591 110.388 166.783 109.727 165.894 109.097C165.005 108.468 164.002 107.839 163.113 107.153C163.041 107.097 162.96 107.202 163.041 107.25C163.923 107.93 164.77 108.654 165.578 109.42C166.387 110.146 167.195 110.888 168.003 111.622C168.811 112.356 169.62 113.009 170.428 113.711C170.824 114.058 171.236 114.421 171.6 114.784C171.945 115.157 172.321 115.499 172.723 115.808C172.764 115.808 172.812 115.808 172.788 115.744C172.527 115.344 172.223 114.974 171.883 114.639Z" fill="#263238"/>
<path d="M177.063 111.275C175.767 109.712 174.362 108.24 172.86 106.871C171.34 105.511 169.685 104.309 167.922 103.282C167.857 103.282 167.793 103.33 167.841 103.379C169.361 104.742 170.904 106.081 172.448 107.412C173.2 108.065 176.53 111.146 176.918 111.445C177.007 111.493 177.12 111.364 177.063 111.275Z" fill="#263238"/>
<path d="M167.089 117.93C165.831 116.487 164.481 115.126 163.048 113.856C161.47 112.697 159.809 111.656 158.077 110.743C158.012 110.743 157.948 110.807 158.004 110.848C159.572 112.009 161.156 113.13 162.668 114.365C163.411 114.969 166.208 117.534 166.968 118.043C167.049 118.091 167.137 117.994 167.089 117.93Z" fill="#263238"/>
<path d="M134.629 117.72L144.887 93.8527C144.887 93.8527 116.789 89.2148 115.924 88.6502C115.059 88.0855 109.934 69.4692 106.644 62.1614C103.355 54.8536 97.7043 50.5625 95.5218 66.2509C93.3393 81.9392 96.4999 101.096 99.6605 105.081C103.492 109.904 118.664 116.01 134.629 117.72Z" fill="#D80121"/>
<path d="M120.192 114.703C115.989 113.566 111.891 111.582 107.873 109.864C104.422 108.42 100.897 106.637 98.9817 103.258C98.0885 101.537 97.4643 99.6898 97.1306 97.7807C96.686 95.6513 96.3223 93.4976 96.0151 91.3279C95.6433 88.8543 95.3092 86.3754 95.0128 83.891C94.8673 82.6166 94.7218 81.3422 94.5925 80.0678C94.4631 78.7933 94.2287 77.5189 94.1802 76.2364C94.1802 76.2193 94.1734 76.2029 94.1613 76.1908C94.1491 76.1787 94.1327 76.1719 94.1155 76.1719C94.0984 76.1719 94.0819 76.1787 94.0698 76.1908C94.0577 76.2029 94.0509 76.2193 94.0509 76.2364C94.1398 77.414 94.0509 78.5997 94.1479 79.7854C94.1479 80.592 94.2449 81.3341 94.3015 82.1085L94.0751 81.6164C93.8262 81.0514 93.6365 80.4621 93.5093 79.858C93.5093 79.7854 93.3719 79.8177 93.388 79.858C93.5335 80.463 93.679 81.076 93.8488 81.6729C93.9296 81.9633 94.0266 82.2536 94.1398 82.544C94.2075 82.739 94.2857 82.9302 94.3742 83.1167C94.5682 85.4343 94.8188 87.7412 95.126 90.0373C95.425 92.2636 95.7726 94.4736 96.1687 96.6837C96.4619 98.6384 96.9828 100.552 97.7207 102.386C98.4547 104.115 99.5776 105.653 101.003 106.879C102.479 108.089 104.11 109.098 105.853 109.88C109.792 111.696 113.865 113.211 118.034 114.413C123.022 115.978 124.541 115.873 120.192 114.703Z" fill="#263238"/>
<path d="M130.741 91.3684C129.706 91.2313 117.476 88.6663 116.999 88.5292C116.76 88.4565 116.545 88.3231 116.373 88.1421C116.202 87.9611 116.08 87.7387 116.021 87.4967C115.641 86.5127 115.31 85.5044 114.954 84.5123C114.34 82.8023 113.715 81.1004 113.079 79.4065C113.079 79.0274 113.006 78.5999 112.965 78.2692C112.925 77.9385 112.844 77.3658 112.772 76.9141C112.61 75.9381 112.319 74.9783 112.198 74.0023C112.198 73.9055 112.044 73.9378 112.068 74.0023C112.315 74.9634 112.461 75.9473 112.505 76.9383C112.545 77.3255 112.569 77.7449 112.594 78.1079C112.222 77.1158 111.842 76.1236 111.446 75.1396C110.985 73.9942 110.46 72.8408 110.088 71.6631C110.088 71.5825 109.942 71.6228 109.967 71.6631C110.387 72.7198 110.686 73.841 111.017 74.8895C111.349 75.9381 111.705 77.0674 112.06 78.1563C112.755 80.2938 113.491 82.4151 114.235 84.5446C114.59 85.5689 114.938 86.6094 115.318 87.6258C115.422 88.0063 115.627 88.3518 115.912 88.6257C116.196 88.8997 116.55 89.092 116.934 89.1825C119.06 89.7552 129.455 91.4732 130.716 91.5216C130.846 91.6023 130.878 91.3845 130.741 91.3684Z" fill="#263238"/>
<path d="M139.687 94.2238C138.071 97.6519 136.454 101.056 134.991 104.556C133.511 108 132.213 111.519 131.103 115.099C131.097 115.115 131.097 115.133 131.104 115.149C131.111 115.164 131.124 115.177 131.14 115.183C131.156 115.19 131.174 115.19 131.19 115.183C131.206 115.176 131.218 115.163 131.225 115.147C132.841 111.784 134.256 108.291 135.686 104.831C137.117 101.37 138.418 97.8132 139.865 94.3448C139.938 94.1996 139.752 94.0867 139.687 94.2238Z" fill="#263238"/>
<path d="M169.904 91.4973C168.667 92.191 161.586 90.239 158.717 92.3845C156.817 93.8042 154.958 97.2241 154.554 101.685C154.142 106.29 157.787 106.056 159.137 104.104C160.782 101.535 162.217 98.8374 163.429 96.0384C164.727 96.2964 166.007 96.6386 167.261 97.0628L169.904 91.4973Z" fill="#F7A9A0"/>
<path d="M161.221 107.573C159.03 105.282 148.086 113.679 151.521 117.494C154.956 121.309 163.694 110.17 161.221 107.573Z" fill="#F7A9A0"/>
<path d="M164.875 110.856C162.684 108.565 151.741 116.962 155.176 120.777C158.611 124.592 167.348 113.453 164.875 110.856Z" fill="#F7A9A0"/>
<path d="M167.753 112.017C165.45 110.235 156.672 119.39 160.35 122.374C164.027 125.359 170.364 114.034 167.753 112.017Z" fill="#F7A9A0"/>
<path d="M170.881 112.517C168.238 111.509 162.669 122.479 166.928 124.213C171.188 125.947 173.879 113.622 170.881 112.517Z" fill="#F7A9A0"/>
<path d="M160.898 111.348C160.29 111.754 159.717 112.21 159.185 112.711C158.595 113.227 158.013 113.751 157.479 114.324C156.959 114.865 156.471 115.436 156.016 116.034C155.54 116.679 155.144 117.381 154.659 118.01C154.65 118.016 154.643 118.024 154.637 118.033C154.632 118.042 154.629 118.052 154.629 118.062C154.629 118.073 154.631 118.083 154.635 118.092C154.64 118.102 154.646 118.11 154.655 118.116C154.663 118.122 154.673 118.127 154.683 118.128C154.693 118.13 154.704 118.129 154.714 118.126C154.724 118.122 154.733 118.117 154.74 118.109C154.747 118.102 154.753 118.093 154.756 118.083C155.235 117.474 155.756 116.9 156.316 116.365C156.841 115.816 157.334 115.244 157.859 114.687C158.385 114.13 158.853 113.59 159.371 113.074C159.888 112.558 160.47 112.025 160.987 111.461C161.011 111.388 160.955 111.315 160.898 111.348Z" fill="#263238"/>
<path d="M165.248 112.372C164.779 113.09 163.138 115.873 162.637 116.575C162.136 117.276 161.611 117.978 161.077 118.664C160.544 119.349 160.026 120.099 159.42 120.745C159.372 120.801 159.461 120.89 159.517 120.833C160.123 120.188 160.786 119.599 161.36 118.922C161.934 118.244 162.459 117.559 162.977 116.841C163.874 115.418 164.684 113.942 165.401 112.421C165.401 112.348 165.288 112.308 165.248 112.372Z" fill="#263238"/>
<path d="M168.287 113.937C167.802 115.002 167.381 116.107 166.888 117.164C166.646 117.688 166.395 118.212 166.153 118.777L165.813 119.543C165.707 119.848 165.571 120.143 165.409 120.422C165.361 120.487 165.49 120.559 165.522 120.471C165.685 120.151 165.874 119.846 166.088 119.559C166.226 119.317 166.371 119.075 166.5 118.833C166.775 118.296 167.026 117.771 167.252 117.26C167.724 116.215 168.119 115.137 168.432 114.034C168.445 114.015 168.45 113.991 168.445 113.968C168.441 113.946 168.427 113.926 168.408 113.913C168.389 113.9 168.365 113.895 168.342 113.9C168.319 113.905 168.299 113.918 168.287 113.937Z" fill="#263238"/>
<path d="M175.425 22.2591C175.038 25.9436 173.633 29.4485 171.367 32.3829C169.1 35.3172 166.062 37.5656 162.59 38.8772C159.117 40.1889 155.348 40.5121 151.703 39.811C148.057 39.1099 144.678 37.4119 141.944 34.9066L131.912 36.3746L136.932 27.7278C135.627 24.5291 135.176 21.0478 135.62 17.6229C136.065 14.1981 137.391 10.9466 139.469 8.18503C141.547 5.42347 144.306 3.24603 147.478 1.86479C150.65 0.483565 154.126 -0.0543676 157.569 0.303397C162.853 0.854568 167.702 3.47667 171.05 7.59355C174.399 11.7104 175.972 16.9853 175.425 22.2591Z" fill="white"/>
<path d="M175.425 22.2589C175.036 25.9422 173.638 29.4473 171.384 32.3899C170.826 33.1247 170.221 33.8225 169.573 34.4789C168.905 35.1164 168.198 35.7117 167.455 36.2615C165.976 37.384 164.342 38.2886 162.605 38.9475C160.878 39.6269 159.063 40.0587 157.214 40.23C156.289 40.3172 155.36 40.3361 154.433 40.2865C153.503 40.2629 152.575 40.1658 151.66 39.9961C147.968 39.3328 144.534 37.6571 141.742 35.1565L141.985 35.2291L131.978 36.6971L131.25 36.81L131.614 36.1728L136.601 27.5099V27.8487C135.432 24.9907 134.933 21.9036 135.143 18.8237C135.353 15.7438 136.267 12.7527 137.814 10.0793C139.373 7.41194 141.518 5.13144 144.086 3.40869C147.279 1.27601 151.014 0.0955026 154.855 0.00555352C158.695 -0.0843956 162.482 0.919934 165.771 2.90083C169.06 4.88172 171.715 7.7571 173.425 11.1899C175.135 14.6228 175.829 18.4709 175.425 22.2831V22.2589ZM175.425 22.2589C175.745 19.2479 175.368 16.2038 174.323 13.3612C173.278 10.5185 171.593 7.95313 169.398 5.86255C167.203 3.77196 164.556 2.21196 161.662 1.30269C158.767 0.393411 155.703 0.159115 152.703 0.617852C149.735 1.05294 146.904 2.15624 144.426 3.84425C141.978 5.55979 139.934 7.78649 138.436 10.3697C136.955 12.961 136.085 15.8543 135.89 18.8309C135.706 21.8001 136.187 24.773 137.296 27.5341L137.369 27.7116L137.272 27.8809L132.228 36.5116L131.872 35.9792L141.904 34.5757H142.041L142.146 34.6645C144.822 37.1645 148.141 38.8735 151.733 39.6009C152.632 39.7794 153.542 39.89 154.457 39.9316C155.369 39.996 156.285 39.996 157.197 39.9316C159.028 39.7904 160.829 39.394 162.549 38.7539C164.286 38.1342 165.921 37.2588 167.399 36.1567C168.902 35.0944 170.23 33.8044 171.335 32.3334C173.597 29.4121 175.012 25.9274 175.425 22.2589Z" fill="#DBDBDB"/>
<path d="M153.147 31.5832L144.595 22.9365L147.464 20.1053L152.468 25.1546L162.855 8.90161L166.258 11.0714L153.147 31.5832Z" fill="#D0F2D1"/>
</svg>
