<svg width="40" height="40" viewBox="0 0 40 40" fill="none" xmlns="http://www.w3.org/2000/svg">
<path d="M8.30667 19.8508C10.3841 18.6572 12.7033 17.6606 14.8701 16.6599C18.5976 15.0196 22.3403 13.4102 26.1206 11.9092C26.8567 11.6533 28.1777 11.4036 28.3077 12.5405C28.2366 14.1499 27.9452 15.7489 27.7442 17.348C27.2365 20.8659 26.6486 24.3704 26.0759 27.877C25.8789 29.0448 24.4756 29.6493 23.578 28.9014C21.4214 27.3818 19.2474 25.8776 17.1182 24.323C16.4196 23.5833 17.0674 22.5217 17.6898 21.9945C19.4668 20.1685 21.3513 18.6169 23.0348 16.697C23.4897 15.5529 22.1474 16.5175 21.7047 16.8126C19.2718 18.5602 16.8988 20.4151 14.335 21.9502C13.0252 22.7033 11.498 22.0606 10.1882 21.6407C9.01439 21.1341 7.29433 20.6235 8.30667 19.8508Z" fill="#303233"/>
</svg>
